<svg id="Layer_1" xmlns="http://www.w3.org/2000/svg" viewBox="0 0 868 886"><style>.st0{fill:#fff}.st1{opacity:.51}.st2{fill:#20211f}.st3{fill:#fff}.st3,.st4,.st5,.st6,.st7,.st8{stroke:#20211f;stroke-miterlimit:10}.st4{fill:#e8e2d4}.st5{fill:#838484}.st6{fill:#20211f}.st7{fill:#d4dddd}.st8{fill:#d069a9}.st9{fill:#838484}.st10{fill:#5d6d83;stroke:#20211f;stroke-miterlimit:10}.st11{fill:#e8e2d4}.st12{fill:#8abfbe}.st13{fill:#fff;stroke:#000;stroke-miterlimit:10}.st14{font-family:&apos;Mistral&apos;}.st15{font-size:23px}.st16{font-size:28px}.st17{stroke:#838484;stroke-miterlimit:10}.st17,.st18{fill:#acb5b5}.st19,.st20{fill:none;stroke:#838484;stroke-width:2.0324;stroke-miterlimit:10}.st20{stroke:#fff;stroke-width:4}</style><circle class="st0" cx="531.5" cy="140.5" r="6.5"/><circle class="st0" cx="295.5" cy="64.5" r="6.5"/><circle class="st0" cx="302.5" cy="230.5" r="6.5"/><circle class="st0" cx="551.5" cy="505.5" r="6.5"/><circle class="st0" cx="814.5" cy="51.5" r="6.5"/><ellipse class="st0" cx="447.4" cy="341" rx="3.6" ry="3.3"/><ellipse class="st0" cx="316.6" cy="302.3" rx="3.6" ry="3.3"/><ellipse class="st0" cx="320.5" cy="386.7" rx="3.6" ry="3.3"/><ellipse class="st0" cx="505.1" cy="442.7" rx="3.6" ry="3.3"/><ellipse class="st0" cx="617.1" cy="367.4" rx="3.6" ry="3.3"/><g class="st1"><ellipse class="st0" cx="492.4" cy="78" rx="3.6" ry="3.3"/><ellipse class="st0" cx="777.4" cy="58.6" rx="3.6" ry="3.3"/><ellipse class="st0" cx="361.6" cy="39.3" rx="3.6" ry="3.3"/><ellipse class="st0" cx="365.5" cy="123.7" rx="3.6" ry="3.3"/><ellipse class="st0" cx="550.1" cy="179.7" rx="3.6" ry="3.3"/><ellipse class="st0" cx="662.1" cy="104.4" rx="3.6" ry="3.3"/></g><ellipse class="st0" cx="383.4" cy="554" rx="3.6" ry="3.3"/><ellipse class="st0" cx="668.4" cy="534.6" rx="3.6" ry="3.3"/><ellipse class="st0" cx="252.6" cy="515.3" rx="3.6" ry="3.3"/><ellipse class="st0" cx="256.5" cy="599.7" rx="3.6" ry="3.3"/><ellipse class="st0" cx="441.1" cy="655.7" rx="3.6" ry="3.3"/><ellipse class="st0" cx="553.1" cy="580.4" rx="3.6" ry="3.3"/><ellipse class="st0" cx="690.6" cy="774" rx="3.6" ry="3.3"/><ellipse class="st0" cx="405.6" cy="754.6" rx="3.6" ry="3.3"/><ellipse class="st0" cx="821.4" cy="735.3" rx="3.6" ry="3.3"/><ellipse class="st0" cx="817.5" cy="819.7" rx="3.6" ry="3.3"/><ellipse class="st0" cx="632.9" cy="875.7" rx="3.6" ry="3.3"/><ellipse class="st0" cx="520.9" cy="800.4" rx="3.6" ry="3.3"/><ellipse class="st0" cx="94.4" cy="80" rx="3.6" ry="3.3"/><ellipse class="st0" cx="379.4" cy="60.6" rx="3.6" ry="3.3"/><ellipse class="st0" cx="152.1" cy="181.7" rx="3.6" ry="3.3"/><ellipse class="st0" cx="264.1" cy="106.4" rx="3.6" ry="3.3"/><g id="astronaut_1_"><g id="astronaut"><path class="st2" d="M412.6 287.9c-19.5-2.7-29.2-26.8-30.8-41.5-.4-3.5-.3-6.5.3-8.6 1.4-5.7 4-8.6 7.6-8.6 2.1 0 4 1.1 4.5 1.4 8.1 20.5 17.4 30.8 27.6 30.8.7 0 1.5-.1 2.2-.2-4.3 5.2-7.7 12.4-10.2 21.8-.5 1.6-.9 3.3-1.2 4.9z"/><path class="st2" d="M389.6 229.7c1.8 0 3.5.9 4.1 1.2 8.2 20.6 17.6 31 28 31h1.1c-4 5.2-7.1 12.1-9.5 21-.4 1.5-.8 3.1-1.1 4.5-10.2-1.6-17.1-9.3-21-15.6-4.7-7.4-8-16.9-8.9-25.4-.4-3.4-.3-6.4.2-8.5 1.4-5.5 3.8-8.2 7.1-8.2m0-1c-2.8 0-6.2 1.8-8 9-.5 2.2-.6 5.3-.3 8.8 1.6 15.3 11.9 39.6 31.7 42 .4-1.8.8-3.6 1.3-5.4 2.4-8.9 5.8-16.9 11-22.7-1.1.3-2.3.5-3.6.5-7.8 0-17.6-6.5-27.2-30.7 0 0-2.2-1.5-4.9-1.5zm47.6 23.4s-.2.3-.7.9l.9-.3c0-.2-.1-.4-.2-.6zm29.3 91.6c1.6.2 3.2.3 4.7.3-1.6-.1-3.1-.2-4.7-.3zm-54.6-49.3c.3-2 .7-4 1.1-5.9-.4 1.9-.8 3.9-1.1 5.9z"/><path class="st2" d="M413 288.5c-.4 1.9-.8 3.9-1.1 5.9.3-2 .7-4 1.1-5.9zm-1.1 5.8c0 .1 0 .1 0 0 0 .1 0 .1 0 0zm54.6 49.4c1.5.2 3 .3 4.3.3h.4c-1.6-.1-3.1-.2-4.7-.3z"/><path class="st2" d="M487.7 344.5c-1 0-2.1 0-3.2-.1-3.8-.3-7.8-.5-12-.8-22.6-1.3-48.2-2.8-58.3-14.4-3.3-3.8-4.7-8.3-4.3-13.9 2.3-29.5 8.4-63.3 35.7-63.3.9 0 1.8 0 2.7.1 22 1.7 44 4.7 55.3 14.9-4.9 2.7-8.5 9.5-9.1 17.2-.4 5.2.6 10.1 2.7 14 2.2 3.9 5.3 6.2 8.8 6.5h.7c1.3 0 2.7-.3 4-.9-.6 21-1.4 40.7-23 40.7z"/><path class="st2" d="M445.7 252.5c.9 0 1.8 0 2.7.1 21.6 1.7 43.1 4.6 54.5 14.3-4.8 3-8.2 9.6-8.8 17.3-.4 5.3.6 10.3 2.7 14.2 2.2 4.1 5.5 6.5 9.2 6.7h.7c1.2 0 2.3-.2 3.4-.6-.3 9.9-.7 20.1-3.5 27.3-3.2 8.2-9.3 12.1-19 12.1-1 0-2.1 0-3.1-.1-3.8-.3-7.8-.5-12-.8-22.5-1.3-48-2.8-57.9-14.2-3.2-3.7-4.6-8.1-4.1-13.5 1-12.9 2.8-29.2 8.1-41.9 5.8-14 14.7-20.9 27.1-20.9m0-1c-28.7 0-34.1 36.2-36.2 63.8-2.2 28.4 43.8 27.2 75 29.6 1.1.1 2.2.1 3.2.1 22.3 0 23-19.9 23.6-42-1.4.8-2.9 1.2-4.5 1.2h-.6c-6.9-.5-11.8-9.4-11-19.9.6-8.1 4.5-14.8 9.5-17.1-11.5-11-34.6-13.9-56.1-15.5-1.1-.2-2-.2-2.9-.2z"/><path class="st3" d="M521.6 417.5h.3c3.3.5 5.7 3.5 5.6 6.9-.1 3.3.5 7.3 3.1 10 2.9 3 8.1 2.8 11.5-.7 2.6-2.6 4.1-7.2 2.9-13.6-.1-.5-.1-1.1-.1-1.6l.4-7.1c.2-3.2-2-6.1-5.1-6.8l-13.5-3.3c-3.8-.9-7.6 1.6-8.2 5.5-.6 4.6-.6 10.1 3.1 10.7zm-136-203s-6.9-8.4-12.6-6.8c-5 1.4-13 18.6-4 25.8 1.3 1 2.9 1.8 5 2.4 0 0 1.6-.9 2.5-12.8 0 0 5.9-7.6-.3-9.1"/><path transform="rotate(27.221 377.15 227.112)" class="st4" d="M375.1 109.1h4v236h-4z"/><path class="st3" d="M376.3 212s11.7 16.9-5.6 20.6m3.7 3.3s4.8 3.4 8 3.6S392 229 392 229s1.9-15.7-7.7-14.4c-9.7 1.3-6.1 6.6-6.1 6.6l7 2.5m71.6 197.1c-.9-.9-1.6-1.9-2.1-3.1-2.5-5.5-1.4-12.9-1.4-12.9l-6.1-.8c-6.1-.8-3-18.2-3-18.2l.8.2 22.6 5 .6 13.7c4.4 15.8-6.3 21.3-11.4 16.1z"/><path class="st3" d="M412.9 332.6s-24.6 61.1 19.9 77.3c8.1 2.9 16.5-3.8 15.1-12.3-.2-1.4-.6-3-1.2-4.7-4.9-14.4 7.7-22.5 7.7-22.5s7.4 21.6 33.4 34.7c26.1 13 36.1 12.8 36.1 12.8s10.4-18.3-7.1-25.6c-17.5-7.4-13-52.2-13-52.2l-90.9-7.5zm20.2-50.5c-1.5 2.1-2.7 3.3-2.7 3.3-6.5 2.9-12.3 3.8-17.4 3.1-19.8-2.4-30.1-26.7-31.7-42-.4-3.5-.3-6.6.3-8.8 3.5-14.1 12.9-7.5 12.9-7.5 11.1 28 22.5 32.3 30.8 30.2 5.5-1.4 9.6-5.6 11.2-7.5.5-.5.7-.9.7-.9.1.2.2.4.2.6 5.1 13.5-.6 24.3-4.3 29.5z"/><path class="st5" d="M410 307c.6-6.1 1.5-12.5 2.8-18.5-19.7-2.4-29.9-26.7-31.5-42 0 0 11.8 30.2 32.7 36.6 5.3 1.6 11.2 1.7 17.7-.6.4-.1.7-.3 1.1-.4 23-7.8-4.7 21.8-22.8 24.9z"/><path class="st5" d="M487.1 349.9c-29.6-2.3-77.5-2.5-76.1-21.3 1.4-18.8 6-43.7 35.6-41.5 18.7 1.4 38.6 3.6 50.5 9.7 1.2.6 1.4 2.4.2 3.2-3.2 2.1-5.4 5.6-5.7 9.8-.5 6.9 4.3 13 10.9 13.5.9.1 1.8.9 1.7 1.8-1.3 13.9 6 26.5-17.1 24.8z"/><path class="st3" d="M484.4 344.8c-4.2-.3-8.6-.6-13.2-.8-1.5-.1-3.1-.2-4.7-.3-28.2-1.8-58.8-5.1-57-28.4.3-3.5.6-7.3 1-11 .1-.9.2-1.9.3-2.8.1-.9.2-1.8.4-2.7.2-1.5.4-2.9.7-4.4.3-2 .7-3.9 1.1-5.9 2.3-11 6.1-21.2 12.3-28.1l.6-.6.5-.5.2-.2.5-.5c.4-.4.8-.8 1.3-1.1.2-.1.4-.3.5-.4.1-.1.2-.1.3-.2.2-.1.3-.3.5-.4.2-.2.5-.3.7-.5.2-.2.5-.3.7-.5.2-.1.4-.2.5-.3.3-.2.5-.3.8-.5l1.8-.9c.2-.1.3-.1.5-.2.5-.2 1.1-.4 1.7-.6l.9-.3c.3-.1.7-.2 1.1-.3.1 0 .2 0 .3-.1.3-.1.7-.2 1-.2.1 0 .2 0 .3-.1.4-.1.8-.1 1.1-.2h.1c.3 0 .7-.1 1-.1h.9c.3 0 .6-.1 1-.1h1.4c.9 0 1.9 0 2.9.1 21.5 1.6 44.6 4.5 56.1 15.5-4.9 2.3-8.8 9-9.5 17.1-.2 3 0 5.8.6 8.3 1.5 6.5 5.5 11.2 10.4 11.6 1.8.1 3.5-.3 5.1-1.2-.5 23.1-1.2 43.8-26.7 41.8z"/><path class="st3" d="M499.5 265.6l-69.7-6.4c-3.3-.3-4.7-4.1-4.4-7.4.3-3.3 4-3.7 7.3-3.5l67.8 5.2c3.3.3 5.8 3.2 5.5 6.4-.3 3.4-3.2 5.9-6.5 5.7z"/><path class="st3" d="M520.2 231c-2.5 32.8-13.4 32.1-52.3 29.2s-57.3-5.5-54.8-38.3 19.4-59.2 58.2-56.2c38.9 2.9 51.5 32.5 48.9 65.3z"/><path class="st6" d="M505 215.8c-1.3 16.8 3.4 36.3-18.6 36.7-21 .4-65.4-.6-68.8-17.3-1.4-7.1.2-26.5 3.4-31.8 4.2-6.9 21.5-4.4 33.8-3.4 22.1 1.6 51.5-1 50.2 15.8z"/><ellipse transform="rotate(-85.613 515.574 222.276) scale(1.00003)" class="st7" cx="515.6" cy="222.3" rx="11.4" ry="6.7"/><ellipse transform="rotate(-85.613 518.707 222.516) scale(1.00003)" class="st3" cx="518.7" cy="222.5" rx="11.4" ry="6.7"/><path transform="rotate(4.387 520.95 203.777) scale(1.00003)" class="st6" d="M520.1 192.8h1.6v22h-1.6z"/><ellipse transform="rotate(-85.613 519.159 221.763) scale(1.00003)" class="st6" cx="519.2" cy="221.8" rx="7.1" ry="3.5"/><path transform="rotate(4.387 521.704 204.228) scale(1.00003)" class="st3" d="M520.9 192.8h1.6v22.8h-1.6z"/><ellipse transform="rotate(-85.613 520.726 221.883) scale(1.00003)" class="st3" cx="520.7" cy="221.9" rx="7.1" ry="3.5"/><path class="st6" d="M521.7 193.6c-.9-.1-1.5-.8-1.4-1.7l.2-3.1c.1-.9.8-1.5 1.7-1.4.9.1 1.5.8 1.4 1.7l-.2 3.1c-.1.8-.8 1.5-1.7 1.4z"/><path class="st3" d="M522.5 193.6c-.9-.1-1.5-.8-1.4-1.7l.2-3.1c.1-.9.8-1.5 1.7-1.4.9.1 1.5.8 1.4 1.7l-.2 3.1c-.1.9-.8 1.5-1.7 1.4z"/><path class="st5" d="M522.5 332.5c0 6.6-5.4 12-12 12h-2c-6.6 0-12-5.4-12-12v-53c0-6.6 5.4-12 12-12h2c6.6 0 12 5.4 12 12v53z"/><path transform="rotate(4.387 452.277 300.06) scale(1.00003)" class="st5" d="M430.3 283.6h44v33h-44z"/><path transform="rotate(-85.614 450.88 298.444) scale(1.00003)" class="st0" d="M436.4 278.4h29v40h-29z"/><path class="st2" d="M432.5 283l38.9 3-2.1 27.9-38.9-3 2.1-27.9m-.9-1.1l-2.3 29.9 40.9 3.1 2.3-29.9-40.9-3.1z"/><ellipse transform="rotate(-85.613 506.673 283.668) scale(1.00003)" class="st3" cx="506.7" cy="283.7" rx="21" ry="14"/><path class="st3" d="M511.4 301.8s15.3-9.6 25.9 8.3c5.4 9 12.2 6.9 17.6 2.6 7.2-5.7 8.5-15.5 3.4-22.9-6.8-10-20.9-22.6-48.3-22.9"/><path class="st3" d="M549.2 315s-.5 11.5 6 13 4.5-1.7 4.5-1.7.5 8.1 8.3 5.7c0 0 17.7-13.2-7.7-27.4 0 0-6.1 11.2-11.1 10.4z"/><ellipse transform="rotate(-85.613 429.809 213.583) scale(1.00003)" class="st7" cx="429.8" cy="213.6" rx="6" ry="6"/><ellipse transform="rotate(-85.613 437.097 223.168) scale(1.00003)" class="st7" cx="437.1" cy="223.2" rx="3" ry="3"/><path class="st5" d="M485.5 344.9c-4-.3-8.2-.5-12.6-.8 30.3-.4 24.4-44.1 24.4-44.1l.4-5c11.3 5.1 3.9 8.8 8.6 9.2 1.7.1 3.4-.3 4.9-1.2-.6 23.1-1.4 43.8-25.7 41.9z"/><path class="st5" d="M502.9 288.3c13.7-5.5 37.1-9.2 48.8 19.3.2.4.2.8.2 1.3-.2 1.4-.8 4.7-2.5 6.2-2.1 1.8-5.9 4.5-14.2-8l-.1-.1c-.8-1-11.5-14.4-23.9-3.8 0 0-6 4.6-11 .4-5.3-4.4-3.6-12.8 2.7-15.3z"/><ellipse transform="rotate(-85.613 435.73 286.75) scale(1.00003)" class="st8" cx="435.7" cy="286.7" rx="2.5" ry="2.5"/><path class="st9" d="M443.6 289.4c-1.1-.1-1.9-1-1.8-2.1.1-1 1-1.8 2-1.8h.2c1.1.1 1.9 1 1.8 2.1-.1 1-1 1.8-2 1.8h-.2z"/><path class="st2" d="M443.7 285.9h.1c.4 0 .8.2 1 .5.3.3.4.7.4 1.1-.1.8-.7 1.4-1.5 1.4h-.1c-.4 0-.8-.2-1-.5-.3-.3-.4-.7-.4-1.1.1-.8.7-1.4 1.5-1.4m0-1c-1.3 0-2.4 1-2.5 2.3-.1 1.4.9 2.6 2.3 2.7h.2c1.3 0 2.4-1 2.5-2.3.1-1.4-.9-2.6-2.3-2.7h-.2z"/><path transform="rotate(4.387 439.083 295.537) scale(1.00003)" class="st10" d="M432.6 293.5h13v4h-13z"/><path class="st5" d="M532.8 436.7c-.9-.9-1.6-1.9-2.1-3.1.1 0 .3 0 .5.1 11.3 2 8.5-11.6 7.2-19.7-1.4-8.1-11.7-4.9-11.7-4.9l-.4-8.1 15.7 4.2c2.8 1.1 3.5 5.4 3.1 8.3l-.2 6c4.4 15.8-7 22.3-12.1 17.2zm-76-15.9c-.9-.9-1.6-1.9-2.1-3.1.1 0 .3 0 .5.1 11.3 2 8.5-11.6 7.2-19.7-1.4-8.1-15.9-6.3-15.9-6.3l-1.4-5.7 22.6 5 .6 13.7c4.3 15.7-6.4 21.2-11.5 16z"/><path class="st5" d="M446.3 404.4s-24.8-40.5 8.8-43c5.5-.4 12.2-.1 15.8 4.7 2.8 3.7 4.7 8.7 7 12.8 2.7 4.8 5.6 9.6 8.6 14.3 1.8 2.9 3.7 5.7 6.2 8.1 2.7 2.5 6.1 4.2 9.5 5.6 7.2 2.9 15.6 4.4 22.8 1.5 4.4-1.8.5 9.8-.6 10.1 0 0-46.6 12-69.2-45.9 0 0-13.5 5.4-8.2 21.7 0-.1 2.9 8.9-.7 10.1z"/><path class="st12" d="M424.4 130.8s-42.9-13.7-52.6-4.4-12.7 35.1-12.7 35.1l45.9 7.1 19.4-37.8zm-66.5 6.6s-18.3 15.6-23.1.2c0 0 9 13.7 18.3 10.4 0 0-29.4 16.8-31.6 6.6 0 0-.8 11 25.3 10"/><path class="st13" d="M739 137.7c0 34.4-47.7 62.3-106.5 62.3-21.9 0-42.3-3.9-59.2-10.5-16.7 19.5-38.3 16-38.3 16 13.5-8.5 16.7-27.3 16.7-27.3-16-10.9-25.7-25-25.7-40.5 0-34.4 47.7-62.3 106.5-62.3S739 103.3 739 137.7z"/><text transform="translate(574.204 128.911)"><tspan x="0" y="0" class="st14 st15">IF I ONLY HAD </tspan><tspan x="0" y="33.6" class="st14 st15">A </tspan><tspan x="21.6" y="33.6" class="st14 st16">WEBSITE!!</tspan></text></g></g><ellipse class="st0" cx="7.4" cy="261" rx="3.6" ry="3.3"/><ellipse class="st0" cx="292.4" cy="241.6" rx="3.6" ry="3.3"/><ellipse class="st0" cx="65.1" cy="362.7" rx="3.6" ry="3.3"/><ellipse class="st0" cx="177.1" cy="287.4" rx="3.6" ry="3.3"/><path class="st6" d="M337.7 546.4c0 62.6-18.2 120.9-49.6 169.9-9.8 15.3-20.9 29.7-33.1 43.1C197.2 822.4 114.3 862 22.1 862c-85.1 0-162.3-33.7-219.1-88.4-15.5-14.9-29.4-31.4-41.6-49.2-34.7-50.7-54.9-112-54.9-178 0-79.2 29.2-151.6 77.4-207.1 38.6-44.3 89.3-77.8 147-95.2 28.9-8.7 59.5-13.4 91.2-13.4 8.3 0 16.4.3 24.5.9 32.8 2.5 64.3 10.1 93.5 21.9 115.8 46.8 197.6 160.3 197.6 292.9z"/><path class="st5" d="M170.3 467c0 107.2-59.1 200.5-146.4 249.3-41.1 23-88.6 36.1-139 36.1-44.2 0-86.1-10.1-123.5-28-95.8-46-162.1-144-162.1-257.4 0-122.1 77.2-226.2 184.2-267v139.3c39-44.3 89.5-77.8 147.2-95.2 28.9-8.7 59.6-13.4 91.2-13.4 8.3 0 16.5.3 24.6.9 74.8 51.6 123.8 137.8 123.8 235.4z"/><circle class="st18" cx="117" cy="335" r="55.5"/></svg>