<svg xmlns="http://www.w3.org/2000/svg" viewBox="0 0 500.5 425"><style>.st0{fill:#131414}.st1{fill:#fff}.st2{fill:#818181}.st3{fill:#c4c4c4}.st4{fill:#bdbdbd}.st5{fill:#e5e5e5}.st6{fill:#d7d7d7}.st7{fill:#acacac}.st8{fill:#2d2d2d}.st9{fill:#8e8e8e}.st10{fill:#ababab}.st11{fill:#787878}.st12{fill:#939393}.st13{opacity:.54;fill:#acacac}.st14{fill:#d8d9d6;stroke:#2b2b2b;stroke-miterlimit:10}.st15{fill:#d0d0d1}.st15,.st16,.st17,.st18,.st19{stroke:#2b2b2b;stroke-miterlimit:10}.st16{stroke-width:1.0858;fill:#8a8c85}.st17{fill:#60a180}.st18{fill:#d4d4d4}.st19{fill:#454349}.st20{fill:#d1b79f}.st20,.st21,.st22,.st23,.st24,.st25{stroke:#2b2b2b;stroke-miterlimit:10}.st21{fill:#a2a1a4}.st22{fill:#a9a9a9}.st23{fill:#d2d2d3}.st24{fill:#a3a3a3}.st25{fill:#d3d3d3}.st26{fill:#b1b2ae}.st26,.st27,.st28,.st29,.st30,.st31{stroke:#2b2b2b;stroke-miterlimit:10}.st27{fill:#aaa}.st28{fill:#8abfbe}.st29{fill:#d5d5d5}.st30{fill:none}.st31{fill:#a9a9a9;stroke-width:1.0555}.st32{fill:#7a7a7a}.st32,.st33,.st34,.st35,.st36{stroke:#2b2b2b;stroke-miterlimit:10}.st33{fill:#a6a6a6}.st34,.st35{fill:#737276}.st35,.st36{stroke-width:1.0093}.st36{fill:#d0d0d1}.st37{fill:#737276;stroke-width:.86}.st37,.st38,.st39{stroke:#2b2b2b;stroke-miterlimit:10}.st38{fill:#d0d0d1;stroke-width:.7766}.st39{stroke-width:.5702}.st39,.st40{fill:#666}.st40,.st41,.st42{stroke:#2b2b2b;stroke-miterlimit:10}.st41{stroke-width:1.0794;fill:#8a8c85}.st42{fill:#ccc}.st43{fill:#f4f3eb}.st43,.st44,.st45,.st46,.st47,.st48{stroke:#2b2b2b;stroke-miterlimit:10}.st44,.st45{fill:#fff}.st45{stroke-width:.9779}.st46,.st47{fill:#d8d9d6;stroke-width:1.3661}.st47{fill:#d0d0d1}.st48{fill:#8a8c85;stroke-width:1.4833}.st49{fill:#60a180;stroke:#2b2b2b;stroke-miterlimit:10}.st49,.st50,.st51{stroke-width:2}.st50,.st51,.st52,.st53,.st54,.st55{stroke:#2b2b2b;stroke-miterlimit:10}.st50{fill:#d0d0d1}.st51{fill:#d4d4d4}.st52{fill:#454349;stroke-width:1.3661}.st53,.st54{fill:#d1b79f;stroke-width:2}.st54{fill:#a2a1a4}.st55{fill:#d4d4d4;stroke-width:1.3661}.st56{stroke-linejoin:round;stroke-width:2}.st56,.st57{fill:#a9a9a9;stroke:#2b2b2b;stroke-miterlimit:10}.st57,.st58,.st59{stroke-width:2}.st58,.st59,.st60,.st61{stroke:#2b2b2b;stroke-miterlimit:10}.st58{fill:#d2d2d3}.st59{fill:#a3a3a3}.st60,.st61{fill:#d3d3d3;stroke-width:1.3661}.st61{fill:#b1b2ae}.st62{fill:#aaa;stroke-width:2}.st62,.st63,.st64,.st65,.st66,.st67{stroke:#2b2b2b;stroke-miterlimit:10}.st63,.st64{fill:#8abfbe;stroke-width:1.3661}.st64{fill:#d5d5d5}.st65{fill:none;stroke-width:2}.st66{fill:#a9a9a9;stroke-width:1.4419}.st67{fill:#7a7a7a;stroke-width:2}.st68{fill:#d3d3d3;stroke:#2b2b2b;stroke-miterlimit:10}.st68,.st69{stroke-width:2}.st69,.st70,.st71,.st72,.st73,.st74,.st75,.st76{stroke:#2b2b2b;stroke-miterlimit:10}.st69,.st70{fill:#a6a6a6}.st70,.st71,.st72{stroke-width:1.3661}.st71{fill:none}.st72,.st73{fill:#737276}.st73,.st74{stroke-width:1.3788}.st74{fill:#d0d0d1}.st75{fill:#737276;stroke-width:1.1748}.st76{fill:#d0d0d1;stroke-width:1.0609}.st77{stroke:#2b2b2b;stroke-width:.7789;stroke-miterlimit:10}.st77,.st78{fill:#666}.st78,.st79,.st80,.st81,.st82,.st83{stroke:#2b2b2b;stroke-miterlimit:10}.st78{stroke-width:2}.st79{fill:#8a8c85;stroke-width:1.4746}.st80{fill:#ccc}.st80,.st81,.st82{stroke-width:1.3661}.st81{fill:#f4f3eb}.st82,.st83{fill:#fff}.st83{stroke-width:1.3359}</style><path class="st2" d="M-1309.2-202.9c3.6-7.3 11.5-13.5 22.2-17.4 26.7-9.9 81-27.1 133.6-26.3 59.8.8 109.5-8.6 125.9-12.1 4.1-.9 8-2.1 11.6-3.6 10-4.2 32.3-14.6 60.9-34.6 13.7-9.6 107.5-9.3 164.8-9.6 20-.1 38.3 6.8 47.1 17.6 18.2 22.4 63.3 59 89.1 59.2 18.1.1 46 12.4 60.6 20.2 15.3 8.1 34.6 13.1 55 13.3 5.2 0 10.6-.2 16.1-.8 28.5-3.1 66.5-3.9 92.5-4.1 18.2-.1 62.8 29.2 71.6 19.6 18.3-19.8 148.6 131.4 165.9 143.3 90.5 62.2 234.5 216.5 101-112.4-.6-1.6 211.9 38.4 213.8 37.2l6.8-42.3c1.2-.8 94.7-40.5 95.8-41.3 4-3-58-39-34.2-32 9.6 2.8 293.4 189.5 34.4 56.8-10.3-5.3 4.3-28.8 11.8-11.4 9 21 252.6 49.9-10.1-23.2-5.8-1.6-13.8 51-211.2-39.9L89-218.2c14.5 5.7 23.3 15.4 23.3 25.8v537.8c0 17.4-23.8 31.3-52.6 30.7l-1571.4-32.7c-33.3-.7-56.5-20.2-47-39.4l249.5-506.9z" id="Layer_1"/><g id="Layer_2"><ellipse class="st14" cx="334.8" cy="168.1" rx="11.9" ry="7.4"/><path class="st15" d="M187.5 144s-1-7.2 0-7l9.6-12.3s.5-1 6-1L187.5 144z"/><path class="st16" d="M301.3 115.9h12.5V127h-12.5z"/><path class="st17" d="M183.3 148.8l21.2 62.2h2s12 7.7 20 6.7l4.7 3.8 10.7-1.8 17-1.7 26-3.7 7.3-1.7 18-2.7s56-38.3 3-85l-21-1.3s-28.3-27-64.3-11c0 0-19.7 2.9-24.7 11.2s-19.9 25-19.9 25z"/><path class="st15" d="M223 233h86v4h-86z"/><path class="st18" d="M213.3 262l9.7-25h85.5l9.3 25zm10 39l-10-39h104.2l-11 39z"/><path class="st19" d="M217.2 246.8l9 13.7c.4.6 0 1.5-.8 1.5h-7.9c-.5 0-1-.4-1-1l-.1-14c-.1-.4.5-.6.8-.2z"/><path class="st20" d="M207 243h6v4h-6z"/><path class="st21" d="M207 246h9v20h-9z"/><path class="st18" d="M205.5 256l-47.7 88.5 6.4 3.3 47.3-89z"/><path class="st22" d="M158 349.5v-5l6.2 3.3z"/><path class="st22" d="M153.2 352l4.6-4.1 4.8-.8 3.6 4.9z"/><path class="st23" d="M143 352h33v5h-33z"/><path class="st24" d="M149.3 359l-2-2h25.2l-2.2 2z"/><path class="st25" d="M161 368h-2.8c-5 0-9-4-9-9H170c0 5-4 9-9 9z"/><path class="st16" d="M291.2 211.4c-.6 0-1-.5-1-1v-87.2c0-.9 1.1-1.3 1.7-.7.2.2.3.4.3.7v87.2c0 .5-.5 1-1 1z"/><path class="st26" d="M284.8 214.2l7.7-6.9 5.2 12.4-11.1-5.9z"/><path class="st20" d="M209 242v-2.5l-2-2.5v-2h6v2l-2 2.5v2.5z"/><path class="st15" d="M231 221.3l-7.5 10.7h83l-5.7-10.6-14.2-7.6z"/><path class="st27" d="M189.6 237.7L207 246v3.5l-18.2-9.3-20-2.9-13.6-6.3H134v-3l21.5-.1 15 7.1z"/><ellipse class="st28" cx="131.7" cy="230" rx="19.5" ry="11.2"/><path class="st29" d="M131.7 230h2.3v13h-2.3zm0-7.1h2.3v5.1h-2.3zm17.6 2.3h1.9v6.8h-1.9z"/><path class="st30" d="M209 241.5v-2l-2-2.5v-2h2.5"/><path class="st30" d="M209 241.5v-2l-2-2.5v-2h2.5"/><path class="st20" d="M209 241.5v-2l-2-2.5v-2h2.5"/><path class="st31" d="M169.6 321.4s2.3-2 7.4 1.9l-3.7 6.9s-4.2-2.5-7.1-2.5l3.4-6.3z"/><circle class="st25" cx="186" cy="324" r="2.6"/><path class="st32" d="M185 325.9l-12.3 6.3 4.5-7.4 7.8-1.8z"/><path class="st25" d="M209.8 318.8l-22 6.2h-3.3l.5-2 1.5-1.6 23-6.4z"/><path class="st33" d="M209.6 314.8l3.4-2.8h4.5l1.8 5.3-3.3 2.7-6.2-1.2z"/><path class="st33" d="M257.8 301l-40.3 11 1.8 5.3 54.2-15.4z"/><path class="st30" d="M213 312l3 8m-1.9-5l3.4-1.2"/><path class="st20" d="M316 243h6v4h-6z"/><path class="st29" d="M130.5 228h5v2h-5z"/><path class="st19" d="M311.5 246.8l-9 13.7c-.4.6 0 1.5.8 1.5h7.9c.5 0 1-.4 1-1l.1-14c0-.4-.6-.6-.8-.2z"/><path class="st21" d="M313 246h9v20h-9z"/><path class="st18" d="M323.2 256l47.6 88.5-6.3 3.3-47.3-89z"/><path class="st22" d="M371 349.5v-5l-6.2 3.3z"/><path class="st22" d="M375.5 352l-4.7-4.1-4.8-.8-3.5 4.9z"/><path class="st23" d="M353 352h33v5h-33z"/><path class="st24" d="M379.4 359l2-2h-25.2l2.2 2z"/><path class="st25" d="M367.7 368h2.8c5 0 9-4 9-9h-20.8c0 5 4 9 9 9z"/><path class="st27" d="M339.3 237.7L322 246v3.5l18-9.3 19.9-2.9 13.6-6.3H395v-3l-21.6-.1-15.1 7.1z"/><ellipse class="st28" cx="397" cy="230" rx="19.5" ry="11.2"/><path transform="rotate(-180 395.833 236.5)" class="st29" d="M394.7 230h2.3v13h-2.3z"/><path transform="rotate(-180 395.833 225.448)" class="st29" d="M394.7 222.9h2.3v5.1h-2.3z"/><path transform="rotate(-180 378.458 228.583)" class="st29" d="M377.5 225.2h1.9v6.8h-1.9z"/><path class="st30" d="M320 241.5v-2l2-2.5v-2h-2.5"/><path class="st30" d="M320 241.5v-2l2-2.5v-2h-2.5"/><path class="st30" d="M320 241.5v-2l2-2.5v-2h-2.5"/><path class="st20" d="M320 242v-2.5l2-2.5v-2h-6v2l2 2.5v2.5z"/><path class="st31" d="M359.1 321.4s-2.3-2-7.4 1.9l3.7 6.9s4.2-2.5 7.1-2.5l-3.4-6.3z"/><circle class="st25" cx="342.7" cy="324" r="2.6"/><path class="st32" d="M344 325.9l12.2 6.3-4.5-7.4-7.7-1.8z"/><path class="st25" d="M318.9 318.8l22 6.2h3.3l-.5-2-1.5-1.6-23-6.4z"/><path class="st33" d="M319 314.8l-3.3-2.8h-4.5l-1.8 5.3 3.3 2.7 6.2-1.2z"/><path class="st33" d="M270.9 301l40.3 11-1.8 5.3-54.2-15.4z"/><path class="st30" d="M315.7 312l-3 8m1.8-5l-3.3-1.2"/><path transform="rotate(-180 395.667 229)" class="st29" d="M393.2 228h5v2h-5z"/><path class="st34" d="M223.5 167.5h5V232h-5z"/><path class="st35" d="M226 112.8h4v54.4h-4z"/><ellipse class="st36" cx="256.3" cy="190.4" rx="27.3" ry="24.6"/><ellipse class="st37" cx="256.3" cy="190.4" rx="23.2" ry="21"/><ellipse class="st38" cx="256.3" cy="190.4" rx="21" ry="18.9"/><path class="st37" d="M239.3 190.4h9v1.9h-9z"/><path class="st21" d="M292.5 203h17l-.5 30-2.5-1z"/><circle class="st15" cx="233.8" cy="166.9" r="3.5"/><circle class="st39" cx="233.8" cy="166.9" r="2"/><path class="st40" d="M240.5 160.6l-4.7 3-.4 2.4h2.1l5-2.7zm-11.3 8.2l1.1-.8h2.2l-.7 1.8-2.8 2.7z"/><path class="st41" d="M313 209.3c-.8 0-1.4-.6-1.4-1.4v-83.3c0-.8.6-1.4 1.4-1.4.8 0 1.4.6 1.4 1.4v83.3c0 .8-.6 1.4-1.4 1.4z"/><path class="st16" d="M303.8 75.4h7.9v40.5h-7.9z"/><path class="st28" d="M309.3 75.4h-3.1c-3.2 0-5.9-2.6-5.9-5.9v-9.6c0-3.2 2.6-5.9 5.9-5.9h3.1c3.2 0 5.9 2.6 5.9 5.9v9.6c-.1 3.2-2.7 5.9-5.9 5.9z"/><path transform="rotate(-33.108 276.346 153.253)" class="st42" d="M267.8 151.8h17v2.8h-17z"/><path class="st42" d="M237.3 146.3h25.4v2.2h-25.4z"/><path transform="rotate(16.178 208.231 147.393)" class="st42" d="M195.1 146.3h26.2v2.2h-26.2z"/><circle class="st14" cx="302.4" cy="139.3" r="6.4"/><circle class="st14" cx="301.9" cy="163.4" r="6.4"/><circle class="st43" cx="301.9" cy="184" r="6.4"/><path class="st30" d="M314.4 149.8s15.1 1.4 20.9 9.3m-20.9 27.4s8 1 19.5-7.6m-98.5 57.6l-9.2 24 9.5 40.5m66.8-40.5l-7-23.5m7.8 25l-7.8 39"/><path class="st44" d="M243.8 213.5h1.8v141h-1.8zm20.9 0h1.8v141h-1.8z"/><path class="st45" d="M245.5 219.7h19.2v1.7h-19.2zm0 8h19.2v1.7h-19.2zm0 8.1h19.2v1.7h-19.2zm0 8h19.2v1.7h-19.2zm0 8h19.2v1.7h-19.2zm0 8h19.2v1.7h-19.2zm0 8h19.2v1.7h-19.2zm0 8h19.2v1.7h-19.2zm0 8h19.2v1.7h-19.2zm0 8h19.2v1.7h-19.2zm0 8h19.2v1.7h-19.2zm0 8h19.2v1.7h-19.2zm0 8h19.2v1.7h-19.2zm0 8h19.2v1.7h-19.2zm0 8h19.2v1.7h-19.2zm0 8h19.2v1.7h-19.2z"/></g></svg>