<svg xmlns="http://www.w3.org/2000/svg" viewBox="0 0 1583 715.1"><style>.st0{fill:#131414}.st1{fill:#fff}.st2{fill:#818181}.st3{fill:#c4c4c4}.st4{fill:#bdbdbd}.st5{fill:#e5e5e5}.st6{fill:#d7d7d7}.st7{fill:#acacac}.st8{fill:#2d2d2d}.st9{fill:#8e8e8e}.st10{fill:#ababab}.st11{fill:#787878}.st12{fill:#939393}.st13{opacity:.54;fill:#acacac}.st14{fill:#d8d9d6;stroke:#2b2b2b;stroke-miterlimit:10}.st15{fill:#d0d0d1}.st15,.st16,.st17,.st18,.st19{stroke:#2b2b2b;stroke-miterlimit:10}.st16{stroke-width:1.0858;fill:#8a8c85}.st17{fill:#60a180}.st18{fill:#d4d4d4}.st19{fill:#454349}.st20{fill:#d1b79f}.st20,.st21,.st22,.st23,.st24,.st25{stroke:#2b2b2b;stroke-miterlimit:10}.st21{fill:#a2a1a4}.st22{fill:#a9a9a9}.st23{fill:#d2d2d3}.st24{fill:#a3a3a3}.st25{fill:#d3d3d3}.st26{fill:#b1b2ae}.st26,.st27,.st28,.st29,.st30,.st31{stroke:#2b2b2b;stroke-miterlimit:10}.st27{fill:#aaa}.st28{fill:#8abfbe}.st29{fill:#d5d5d5}.st30{fill:none}.st31{fill:#a9a9a9;stroke-width:1.0555}.st32{fill:#7a7a7a}.st32,.st33,.st34,.st35,.st36{stroke:#2b2b2b;stroke-miterlimit:10}.st33{fill:#a6a6a6}.st34,.st35{fill:#737276}.st35,.st36{stroke-width:1.0093}.st36{fill:#d0d0d1}.st37{fill:#737276;stroke-width:.86}.st37,.st38,.st39{stroke:#2b2b2b;stroke-miterlimit:10}.st38{fill:#d0d0d1;stroke-width:.7766}.st39{stroke-width:.5702}.st39,.st40{fill:#666}.st40,.st41,.st42{stroke:#2b2b2b;stroke-miterlimit:10}.st41{stroke-width:1.0794;fill:#8a8c85}.st42{fill:#ccc}.st43{fill:#f4f3eb}.st43,.st44,.st45,.st46,.st47,.st48{stroke:#2b2b2b;stroke-miterlimit:10}.st44,.st45{fill:#fff}.st45{stroke-width:.9779}.st46,.st47{fill:#d8d9d6;stroke-width:1.3661}.st47{fill:#d0d0d1}.st48{fill:#8a8c85;stroke-width:1.4833}.st49{fill:#60a180;stroke:#2b2b2b;stroke-miterlimit:10}.st49,.st50,.st51{stroke-width:2}.st50,.st51,.st52,.st53,.st54{stroke:#2b2b2b;stroke-miterlimit:10}.st50{fill:#d0d0d1}.st51{fill:#d4d4d4}.st52{fill:#454349;stroke-width:1.3661}.st53,.st54{fill:#d1b79f;stroke-width:2}.st54{fill:#a2a1a4}.st55{fill:#d4d4d4;stroke-width:1.3661}.st55,.st56,.st57,.st58,.st59,.st60{stroke:#2b2b2b;stroke-miterlimit:10}.st56{fill:#a9a9a9}.st56,.st57,.st58{stroke-width:2}.st57{fill:#d2d2d3}.st58{fill:#a3a3a3}.st59,.st60{fill:#d3d3d3;stroke-width:1.3661}.st60{fill:#b1b2ae}.st61{fill:#aaa;stroke-width:2}.st61,.st62,.st63,.st64,.st65,.st66{stroke:#2b2b2b;stroke-miterlimit:10}.st62,.st63{fill:#8abfbe;stroke-width:1.3661}.st63{fill:#d5d5d5}.st64{fill:none;stroke-width:2}.st65{fill:#a9a9a9;stroke-width:1.4419}.st66{fill:#7a7a7a;stroke-width:2}.st67{fill:#d3d3d3;stroke:#2b2b2b;stroke-miterlimit:10}.st67,.st68{stroke-width:2}.st68,.st69,.st70,.st71,.st72,.st73,.st74,.st75{stroke:#2b2b2b;stroke-miterlimit:10}.st68,.st69{fill:#a6a6a6}.st69,.st70,.st71{stroke-width:1.3661}.st70{fill:none}.st71,.st72{fill:#737276}.st72,.st73{stroke-width:1.3788}.st73{fill:#d0d0d1}.st74{fill:#737276;stroke-width:1.1748}.st75{fill:#d0d0d1;stroke-width:1.0609}.st76{stroke:#2b2b2b;stroke-width:.7789;stroke-miterlimit:10}.st76,.st77{fill:#666}.st77,.st78,.st79,.st80,.st81,.st82{stroke:#2b2b2b;stroke-miterlimit:10}.st77{stroke-width:2}.st78{fill:#8a8c85;stroke-width:1.4746}.st79{fill:#ccc}.st79,.st80,.st81{stroke-width:1.3661}.st80{fill:#f4f3eb}.st81,.st82{fill:#fff}.st82{stroke-width:1.3359}</style><g id="Layer_1"><path class="st0" d="M268 161.3l-125.9 43.3"/><path class="st2" d="M462.3 357.6c3.6-7.3 11.5-13.5 22.2-17.4 26.7-9.9 81-27.1 133.6-26.3 59.8.8 109.5-8.6 125.9-12.1 4.1-.9 8-2.1 11.6-3.6 10-4.2 32.3-14.6 60.9-34.6 13.7-9.6 107.5-9.3 164.8-9.6 20-.1 38.3 6.8 47.1 17.6 18.2 22.4 63.3 59 89.1 59.2 18.1.1 46 12.4 60.6 20.2 15.3 8.1 34.6 13.1 55 13.3 5.2 0 10.6-.2 16.1-.8 28.5-3.1 66.5-3.9 92.5-4.1 18.2-.1 62.8 29.2 71.6 19.6 18.3-19.8 148.6 131.4 165.9 143.3 90.4 62.2 234.4 216.6 100.9-112.3-.6-1.6 211.9 38.4 213.8 37.2l6.8-42.3c1.2-.8 94.7-40.5 95.8-41.3 4-3-58-39-34.2-32 9.6 2.8 293.4 189.5 34.4 56.8-10.3-5.3 4.3-28.8 11.8-11.4 9 21 252.6 49.9-10.1-23.2-5.8-1.6-13.8 51-211.2-39.9l73.2 28.5c14.5 5.7 23.3 15.4 23.3 25.8V906c0 17.4-23.8 31.3-52.6 30.7L259.7 903.9c-33.3-.7-56.5-20.2-47-39.4l249.6-506.9z"/><path class="st3" d="M1095 388.2c150.5-17.7 342.3-12.4 366.1-9.6 1.7.2 3.4.4 5.1.5l66.4 5.7c51.8 4.4 89.8 35.1 86.9 70.2L1584 881c-3 35.8-47.3 63.6-100.5 63.2l-1631-12.8c-60-.5-105.7-36.3-97.4-76.2L-140 351.3c3.1-14.9-21.5 36.4-5.4 25.9 46.3-30 191.9-146.8 376.1-121.1 88.2 12.3 188.8 120.8 316.3 136.6 37.6 4.7 73.9 43.6 112.1 42 186-7.7 61.7-3.7 229-29.1"/><path class="st4" d="M274.6 457.6c5 1.3 11.6 3.3 17.4 6.3 15.1 7.7 33.6 12.1 52.7 13 63.3 2.9 231-6.5 545.8 8.4 109.7 5.2 300.8 29.2 324.7 34 400.4 79.6 506 60 506 60l-67.7 297.4L-60 882.9l30.4-478.2s151.8 7.5 242.2 26.9c17.3 3.7 32.9 10.2 45.5 18.8 4.7 3.2 10.3 5.6 16.5 7.2z"/><path class="st5" d="M1393.2 634.4c0 45.5-88.9 65.7-203.8 65.7s-208-36.9-208-82.4c0-45.5 58.2-43.6 173.1-43.6s238.7 14.8 238.7 60.3z"/><path class="st6" d="M1350.3 629.2c-1.9 39-63.7 60-167 59.2-106.3-.9-182.5-32.2-167.2-68.8 11.5-27.7 18.9-34.1 125.2-34.1s210.8 5.2 209 43.7z"/><path class="st7" d="M1328 641.3c0 27.4-63 49.6-140.7 49.6-77.7 0-140.7-22.2-140.7-49.6s43.5-34.1 121.2-34.1 160.2 6.7 160.2 34.1z"/><path class="st8" d="M1269.4 656.5c0 12.7-27.3 31.8-85.7 31.8s-88.8-6.2-88.8-18.9 12.2-37.2 70.6-37.2 103.9 11.6 103.9 24.3z"/><path class="st9" d="M240.3 463.8c0 10.7-24.7 19.3-55.3 19.3s-37.9-8.6-37.9-19.3c0-10.7 7.4-19.3 37.9-19.3s55.3 8.6 55.3 19.3z"/><ellipse class="st10" cx="201.7" cy="463.8" rx="38.6" ry="18.5"/></g><g id="Layer_2"><path class="st13" d="M506.1 660l370.8-13.5 297.2 232.2-491 9.6L495 660z"/><ellipse class="st46" cx="785.3" cy="388" rx="16.2" ry="10.2"/><path class="st47" d="M584.2 355.1s-1.3-9.9 0-9.5l13.1-16.7s.6-1.4 8.3-1.4l-21.4 27.6z"/><path class="st48" d="M739.5 316.7h17.1v15.2h-17.1z"/><path class="st49" d="M578.4 361.9l28.9 85.1h2.7s16.4 10.3 27.3 8.9l6.4 5 14.6-2.5 23.2-2.4 35.5-5.1 10-2.3 24.6-3.7s76.5-52.4 4.1-116.1L727 327s-38.7-36.9-87.9-15c0 0-26.9 4.1-33.7 15.4-6.7 11.6-27 34.5-27 34.5z"/><path class="st50" d="M632 476h118v6H632z"/><path class="st51" d="M619.3 516l13.3-34h116.8l12.8 34zm13.8 53l-13.8-53h142.4l-15 53z"/><path class="st52" d="M624.7 495.6l12.3 18.8c.6.9-.1 2-1.1 2H625c-.7 0-1.3-.6-1.3-1.3l-.2-19.1c0-.7.8-.9 1.2-.4z"/><path class="st53" d="M611 491h8v5h-8z"/><path class="st54" d="M611 495h13v27h-13z"/><path class="st55" d="M608.7 508.2l-65.1 120.9 8.6 4.5L616.9 512z"/><path class="st56" d="M544 635.9v-6.8l8.4 4.5z"/><path class="st56" d="M537.2 639l6.4-5.4 6.5-1.2 4.9 6.6z"/><path class="st57" d="M523 639h46v7h-46z"/><path class="st58" d="M531.9 649l-2.8-3h34.5l-3 3z"/><path class="st59" d="M547.9 661.2h-3.8c-6.8 0-12.3-5.5-12.3-12.3h28.3c.1 6.8-5.4 12.3-12.2 12.3z"/><path class="st48" d="M725.7 447.2c-.8 0-1.4-.6-1.4-1.4V326.6c0-1.2 1.5-1.8 2.3-1 .3.3.4.6.4 1v119.1c.1.8-.5 1.5-1.3 1.5z"/><path class="st60" d="M717.1 451l10.5-9.3 7.1 16.9-15.2-8.1z"/><path class="st53" d="M613 489v-3.4l-2-3.4V479h8v3.2l-3 3.4v3.4z"/><path class="st50" d="M643.5 460.5L633.3 475h113.4l-7.8-14.3-19.4-10.4z"/><path class="st61" d="M587.1 483.1l23.9 11.4v4.8l-24.9-12.8-27.4-4-18.8-8.5H511v-4.1l29.3-.1 20.6 9.7z"/><ellipse class="st62" cx="507.8" cy="472.6" rx="26.6" ry="15.3"/><path class="st63" d="M507.8 472.6h3.2v17.8h-3.2zm0-9.7h3.2v7h-3.2zm24.1 3.1h2.6v9.3h-2.6z"/><path class="st64" d="M613 488v-2.4l-2-3.4V479h3"/><path class="st64" d="M613 488v-2.4l-2-3.4V479h3"/><path class="st53" d="M613 488v-2.4l-2-3.4V479h3"/><path class="st65" d="M559.7 597.6s3.2-2.8 10.1 2.6l-5 9.5s-5.8-3.4-9.7-3.4l4.6-8.7z"/><circle class="st59" cx="582" cy="601.1" r="3.6"/><path class="st66" d="M581 603.6l-17 8.6 6.3-10.1 10.7-2.4z"/><path class="st67" d="M614.5 594.2l-30 8.8H580l.7-3 2.1-2.3 31.4-8.7z"/><path class="st68" d="M614.3 588.6l4.7-3.6h6.1l2.4 7-4.4 3.7-8.6-1.7z"/><path class="st69" d="M680.1 569.6l-55 15.1 2.4 7.1 74.1-20.9z"/><path class="st70" d="M619 584.7l4.1 10.9m-2.6-6.8l4.6-1.8"/><path class="st53" d="M760 491h8v5h-8z"/><path class="st63" d="M506.3 469.9h6.8v2.7h-6.8z"/><path class="st52" d="M753.5 495.6l-12.3 18.8c-.6.9.1 2 1.1 2h10.8c.7 0 1.3-.6 1.3-1.3l.2-19.1c0-.7-.8-.9-1.1-.4z"/><path class="st54" d="M756 495h12v27h-12z"/><path class="st55" d="M769.5 508.2l65.1 120.9-8.7 4.5L761.3 512z"/><path class="st56" d="M835 635.9v-6.8l-8.4 4.5z"/><path class="st56" d="M840.9 639l-6.3-5.4-6.6-1.2-4.8 6.6z"/><path class="st57" d="M810 639h45v7h-45z"/><path class="st58" d="M846.3 649l2.7-3h-34.5l3.1 3z"/><path class="st59" d="M830.2 661.2h3.8c6.8 0 12.3-5.5 12.3-12.3H818c-.1 6.8 5.5 12.3 12.2 12.3z"/><path class="st61" d="M791.5 483.1L768 494.5v4.8l24.5-12.8 27.2-4 18.5-8.5H867v-4.1l-29.2-.1-20.4 9.7z"/><ellipse class="st62" cx="870.3" cy="472.6" rx="26.6" ry="15.3"/><path transform="rotate(-180 868.723 481.514)" class="st63" d="M867.1 472.6h3.2v17.8h-3.2z"/><path transform="rotate(-180 868.723 466.416)" class="st63" d="M867.1 462.9h3.2v7h-3.2z"/><path transform="rotate(-180 844.987 470.699)" class="st63" d="M843.7 466h2.6v9.3h-2.6z"/><path class="st64" d="M765 488v-2.4l3-3.4V479h-4"/><path class="st64" d="M765 488v-2.4l3-3.4V479h-4"/><path class="st64" d="M765 488v-2.4l3-3.4V479h-4"/><path class="st53" d="M765 489v-3.4l3-3.4V479h-8v3.2l2 3.4v3.4z"/><path class="st65" d="M818.5 597.6s-3.2-2.8-10.1 2.6l5 9.5s5.8-3.4 9.7-3.4l-4.6-8.7z"/><circle class="st59" cx="796.1" cy="601.1" r="3.6"/><path class="st66" d="M798 603.6l16.6 8.6-6.1-10.1-10.5-2.4z"/><path class="st67" d="M763.6 594.2l30.1 8.8h4.4l-.6-3-2.1-2.3L764 589z"/><path class="st68" d="M763.8 588.6l-4.6-3.6h-6.1l-2.4 7 4.4 3.7 8.5-1.7z"/><path class="st69" d="M698.1 569.6l55 15.1-2.4 7.1-74.1-20.9z"/><path class="st70" d="M759.2 584.7l-4.1 10.9m2.6-6.8l-4.6-1.8"/><path transform="rotate(-180 868.495 471.268)" class="st63" d="M865.1 469.9h6.8v2.7h-6.8z"/><path class="st71" d="M633.3 387.3h6.8v88.1h-6.8z"/><path class="st72" d="M636.7 312.6h5.5V387h-5.5z"/><ellipse class="st73" cx="678" cy="418.5" rx="37.2" ry="33.6"/><ellipse class="st74" cx="678" cy="418.5" rx="31.7" ry="28.7"/><ellipse class="st75" cx="678" cy="418.5" rx="28.6" ry="25.9"/><path class="st74" d="M654.8 418.5h12.3v2.6h-12.3z"/><path class="st54" d="M727.6 436h23.2l-.7 40.9-3.4-1.3z"/><circle class="st47" cx="647.3" cy="386.5" r="4.8"/><circle class="st76" cx="647.3" cy="386.5" r="2.7"/><path class="st77" d="M656.5 377.9l-6.4 3.9-.6 3.2h2.9l6.9-3.6zM641 389l1.5-1h3.1l-1 2.4-3.8 3.7z"/><path class="st78" d="M755.6 444.4c-1 0-1.9-.8-1.9-1.9V328.7c0-1 .8-1.9 1.9-1.9 1 0 1.9.8 1.9 1.9v113.8c-.1 1-.9 1.9-1.9 1.9z"/><path class="st48" d="M742.9 261.4h10.8v55.3h-10.8z"/><path class="st62" d="M750.4 261.4h-4.3c-4.4 0-8-3.6-8-8v-13.1c0-4.4 3.6-8 8-8h4.3c4.4 0 8 3.6 8 8v13.1c.1 4.4-3.5 8-8 8z"/><path transform="rotate(-33.108 705.506 367.798)" class="st79" d="M693.9 365.8h23.2v3.9h-23.2z"/><path class="st79" d="M652.1 358.3h34.7v3h-34.7z"/><path transform="rotate(16.178 612.412 359.755)" class="st79" d="M594.6 358.3h35.8v3h-35.8z"/><circle class="st46" cx="741.1" cy="348.7" r="8.8"/><circle class="st46" cx="740.4" cy="381.7" r="8.8"/><circle class="st80" cx="740.4" cy="409.7" r="8.8"/><path class="st70" d="M757.4 363.1S778 365 786 375.8m-28.6 37.4s10.9 1.4 26.7-10.4m-134.6 78.7L637 514.3l13 55.3m91.2-55.3l-9.6-32.1m10.7 34.1l-10.7 53.3"/><path class="st81" d="M661 450.1h2.4v192.6H661zm28.5 0h2.4v192.6h-2.4z"/><path class="st82" d="M663.4 458.6h26.2v2.3h-26.2zm0 11h26.2v2.3h-26.2zm0 10.9h26.2v2.3h-26.2zm0 10.9h26.2v2.3h-26.2zm0 11h26.2v2.3h-26.2zm0 10.9h26.2v2.3h-26.2zm0 10.9h26.2v2.3h-26.2zm0 10.9h26.2v2.3h-26.2zm0 11h26.2v2.3h-26.2zm0 10.9h26.2v2.3h-26.2zm0 10.9h26.2v2.3h-26.2zm0 11h26.2v2.3h-26.2zm0 10.9h26.2v2.3h-26.2zm0 10.9h26.2v2.3h-26.2zm0 11h26.2v2.3h-26.2zm0 10.9h26.2v2.3h-26.2z"/></g></svg>