<svg xmlns="http://www.w3.org/2000/svg" viewBox="0 0 791.7 498"><style>.st0{fill:#131414}.st1{fill:#fff}.st2{fill:#818181}.st3{fill:#c4c4c4}.st4{fill:#bdbdbd}.st5{fill:#e5e5e5}.st6{fill:#d7d7d7}.st7{fill:#acacac}.st8{fill:#2d2d2d}.st9{fill:#8e8e8e}.st10{fill:#ababab}.st11{fill:#787878}.st12{fill:#939393}.st13{opacity:.54;fill:#acacac}.st14{fill:#d8d9d6;stroke:#2b2b2b;stroke-miterlimit:10}.st15{fill:#d0d0d1}.st15,.st16,.st17,.st18,.st19{stroke:#2b2b2b;stroke-miterlimit:10}.st16{stroke-width:1.0858;fill:#8a8c85}.st17{fill:#60a180}.st18{fill:#d4d4d4}.st19{fill:#454349}.st20{fill:#d1b79f}.st20,.st21,.st22,.st23,.st24,.st25{stroke:#2b2b2b;stroke-miterlimit:10}.st21{fill:#a2a1a4}.st22{fill:#a9a9a9}.st23{fill:#d2d2d3}.st24{fill:#a3a3a3}.st25{fill:#d3d3d3}.st26{fill:#b1b2ae}.st26,.st27,.st28,.st29,.st30,.st31{stroke:#2b2b2b;stroke-miterlimit:10}.st27{fill:#aaa}.st28{fill:#8abfbe}.st29{fill:#d5d5d5}.st30{fill:none}.st31{fill:#a9a9a9;stroke-width:1.0555}.st32{fill:#7a7a7a}.st32,.st33,.st34,.st35,.st36{stroke:#2b2b2b;stroke-miterlimit:10}.st33{fill:#a6a6a6}.st34,.st35{fill:#737276}.st35,.st36{stroke-width:1.0093}.st36{fill:#d0d0d1}.st37{fill:#737276;stroke-width:.86}.st37,.st38,.st39{stroke:#2b2b2b;stroke-miterlimit:10}.st38{fill:#d0d0d1;stroke-width:.7766}.st39{stroke-width:.5702}.st39,.st40{fill:#666}.st40,.st41,.st42{stroke:#2b2b2b;stroke-miterlimit:10}.st41{stroke-width:1.0794;fill:#8a8c85}.st42{fill:#ccc}.st43{fill:#f4f3eb}.st43,.st44,.st45,.st46,.st47,.st48{stroke:#2b2b2b;stroke-miterlimit:10}.st44,.st45{fill:#fff}.st45{stroke-width:.9779}.st46,.st47{fill:#d8d9d6;stroke-width:1.3661}.st47{fill:#d0d0d1}.st48{fill:#8a8c85;stroke-width:1.4833}.st49{fill:#60a180;stroke:#2b2b2b;stroke-miterlimit:10}.st49,.st50,.st51{stroke-width:2}.st50,.st51,.st52,.st53,.st54,.st55{stroke:#2b2b2b;stroke-miterlimit:10}.st50{fill:#d0d0d1}.st51{fill:#d4d4d4}.st52{fill:#454349;stroke-width:1.3661}.st53,.st54{fill:#d1b79f;stroke-width:2}.st54{fill:#a2a1a4}.st55{fill:#d4d4d4;stroke-width:1.3661}.st56{stroke-linejoin:round;stroke-width:2}.st56,.st57{fill:#a9a9a9;stroke:#2b2b2b;stroke-miterlimit:10}.st57,.st58,.st59{stroke-width:2}.st58,.st59,.st60,.st61{stroke:#2b2b2b;stroke-miterlimit:10}.st58{fill:#d2d2d3}.st59{fill:#a3a3a3}.st60,.st61{fill:#d3d3d3;stroke-width:1.3661}.st61{fill:#b1b2ae}.st62{fill:#aaa;stroke-width:2}.st62,.st63,.st64,.st65,.st66,.st67{stroke:#2b2b2b;stroke-miterlimit:10}.st63,.st64{fill:#8abfbe;stroke-width:1.3661}.st64{fill:#d5d5d5}.st65{fill:none;stroke-width:2}.st66{fill:#a9a9a9;stroke-width:1.4419}.st67{fill:#7a7a7a;stroke-width:2}.st68{fill:#d3d3d3;stroke:#2b2b2b;stroke-miterlimit:10}.st68,.st69{stroke-width:2}.st69,.st70,.st71,.st72,.st73,.st74,.st75,.st76{stroke:#2b2b2b;stroke-miterlimit:10}.st69,.st70{fill:#a6a6a6}.st70,.st71,.st72{stroke-width:1.3661}.st71{fill:none}.st72,.st73{fill:#737276}.st73,.st74{stroke-width:1.3788}.st74{fill:#d0d0d1}.st75{fill:#737276;stroke-width:1.1748}.st76{fill:#d0d0d1;stroke-width:1.0609}.st77{stroke:#2b2b2b;stroke-width:.7789;stroke-miterlimit:10}.st77,.st78{fill:#666}.st78,.st79,.st80,.st81,.st82,.st83{stroke:#2b2b2b;stroke-miterlimit:10}.st78{stroke-width:2}.st79{fill:#8a8c85;stroke-width:1.4746}.st80{fill:#ccc}.st80,.st81,.st82{stroke-width:1.3661}.st81{fill:#f4f3eb}.st82,.st83{fill:#fff}.st83{stroke-width:1.3359}</style><g id="Layer_1"><path class="st2" d="M66.7 140.5c3.6-7.3 11.5-13.5 22.2-17.4 26.7-9.9 81-27.1 133.6-26.3 59.8.8 109.5-8.6 125.9-12.1 4.1-.9 8-2.1 11.6-3.6 10-4.2 32.3-14.6 60.9-34.6 13.7-9.6 107.5-9.3 164.8-9.6 20-.1 38.3 6.8 47.1 17.6 18.2 22.4 63.3 59 89.1 59.2 18.1.1 46 12.4 60.6 20.2 15.3 8.1 34.6 13.1 55 13.3 5.2 0 10.6-.2 16.1-.8 28.5-3.1 66.5-3.9 92.5-4.1 18.2-.1 62.8 29.2 71.6 19.6 18.3-19.8 148.6 131.4 165.9 143.3 90.4 62.2 234.4 216.6 100.9-112.3-.6-1.6 211.9 38.4 213.8 37.2l6.8-42.3c1.2-.8 94.7-40.5 95.8-41.3 4-3-58-39-34.2-32 9.6 2.8 293.4 189.5 34.4 56.8-10.3-5.3 4.3-28.8 11.8-11.4 9 21 252.6 49.9-10.1-23.2-5.8-1.6-13.8 51-211.2-39.9l73.2 28.5c14.5 5.7 23.3 15.4 23.3 25.8v537.8c0 17.4-23.8 31.3-52.6 30.7l-1571.4-32.7c-33.3-.7-56.5-20.2-47-39.4l249.6-507z"/><path class="st3" d="M699.3 171.1c150.5-17.7 342.3-12.4 366.1-9.6 1.7.2 3.4.4 5.1.5l66.4 5.7c51.8 4.4 89.8 35.1 86.9 70.2l-35.5 426c-3 35.8-47.3 63.6-100.5 63.2l-1631-12.8c-60-.5-105.7-36.3-97.4-76.2l104.9-503.9c3.1-14.9-21.5 36.4-5.4 25.9C-494.8 130.1-349.2 13.3-165 39c88.2 12.3 188.8 120.8 316.3 136.6 37.6 4.7 73.9 43.6 112.1 42 186-7.7 61.7-3.7 229-29.1"/><path class="st4" d="M-121.1 240.5c5 1.3 11.6 3.3 17.4 6.3 15.1 7.7 33.6 12.1 52.7 13 63.3 2.9 231-6.5 545.8 8.4 109.7 5.2 300.8 29.2 324.7 34 400.4 79.6 506 60 506 60l-67.7 297.4-1713.4 6.2 30.4-478.2s151.8 7.5 242.2 26.9c17.3 3.7 32.9 10.2 45.5 18.8 4.7 3.1 10.2 5.6 16.4 7.2z"/><path class="st5" d="M997.6 417.3c0 45.5-88.9 65.7-203.8 65.7s-208-36.9-208-82.4S644 357 758.9 357s238.7 14.8 238.7 60.3z"/><path class="st6" d="M954.6 412.1c-1.9 39-63.7 60-167 59.2-106.3-.9-182.5-32.2-167.2-68.8 11.5-27.7 18.9-34.1 125.2-34.1s210.9 5.2 209 43.7z"/><path class="st7" d="M932.4 424.1c0 27.4-63 49.6-140.7 49.6S651 451.5 651 424.1c0-27.4 43.5-34.1 121.2-34.1s160.2 6.8 160.2 34.1z"/><path class="st8" d="M873.8 439.4c0 12.7-27.3 31.8-85.7 31.8-58.3 0-88.8-6.2-88.8-18.9s12.2-37.2 70.6-37.2c58.4.1 103.9 11.6 103.9 24.3z"/></g><g id="Layer_2"><path class="st13" d="M153 437.9l292.7-1 332.8 224.6-418.8 4.5L139 437.9z"/><ellipse class="st46" cx="389.7" cy="170.9" rx="16.2" ry="10.2"/><path class="st47" d="M188.5 138s-1.3-9.9 0-9.5l13.1-16.7s.6-1.4 8.3-1.4L188.5 138z"/><path class="st48" d="M343.9 99.6H361v15.2h-17.1z"/><path class="st49" d="M182.8 144.8l28.9 85.1h2.7s16.4 10.3 27.3 8.9l6.4 5 14.6-2.5 23.2-2.4 35.5-5.1 10-2.3 24.6-3.7s76.5-52.4 4.1-116.1l-28.7-1.8s-38.7-36.9-87.9-15c0 0-26.9 4.1-33.7 15.4-6.7 11.5-27 34.5-27 34.5z"/><path class="st50" d="M236.4 258.9h118v6h-118z"/><path class="st51" d="M223.7 298.9l13.3-34h116.8l12.7 34zm13.7 53l-13.7-53h142.4l-15.1 53z"/><path class="st52" d="M229 278.5l12.3 18.8c.6.9-.1 2-1.1 2h-10.8c-.7 0-1.3-.6-1.3-1.3l-.2-19.1c0-.7.8-1 1.1-.4z"/><path class="st53" d="M215.4 273.9h8v5h-8z"/><path class="st54" d="M215.4 277.9h13v27h-13z"/><path class="st55" d="M213.1 291L148 411.9l8.6 4.6 64.7-121.6z"/><path class="st56" d="M148.4 418.8v-6.9l8.4 4.6z"/><path class="st57" d="M141.6 421.9l6.4-5.4 6.5-1.2 4.8 6.6z"/><path class="st58" d="M127.4 421.9h46v7h-46z"/><path class="st59" d="M136.2 431.9l-2.7-3H168l-3.1 3z"/><path class="st60" d="M152.3 444h-3.8c-6.8 0-12.3-5.5-12.3-12.3h28.3c.1 6.8-5.4 12.3-12.2 12.3z"/><path class="st48" d="M330.1 230.1c-.8 0-1.4-.6-1.4-1.4V109.5c0-1.2 1.5-1.8 2.3-1 .3.3.4.6.4 1v119.1c.1.8-.5 1.5-1.3 1.5z"/><path class="st61" d="M321.4 233.9l10.5-9.3 7.1 16.9-15.1-8.1z"/><path class="st53" d="M217.4 271.9v-3.4l-2-3.4v-3.2h8v3.2l-3 3.4v3.4z"/><path class="st50" d="M247.9 243.4l-10.2 14.5H351l-7.7-14.3-19.4-10.4z"/><path class="st62" d="M191.4 266l24 11.4v4.8l-25-12.8-27.4-4-18.7-8.5h-28.9v-4.1l29.3-.1 20.6 9.7z"/><ellipse class="st63" cx="112.2" cy="255.5" rx="26.6" ry="15.3"/><path class="st64" d="M112.2 255.5h3.2v17.8h-3.2zm0-9.7h3.2v7h-3.2zm24 3.1h2.6v9.3h-2.6z"/><path class="st65" d="M217.4 270.9v-2.4l-2-3.4v-3.2h3"/><path class="st65" d="M217.4 270.9v-2.4l-2-3.4v-3.2h3"/><path class="st53" d="M217.4 270.9v-2.4l-2-3.4v-3.2h3"/><path class="st66" d="M164 380.4s3.2-2.8 10.1 2.6l-5 9.5s-5.8-3.4-9.7-3.4l4.6-8.7z"/><circle class="st60" cx="186.4" cy="384" r="3.6"/><path class="st67" d="M185.4 386.5l-17 8.6 6.3-10.1 10.7-2.4z"/><path class="st68" d="M218.9 377.1l-30.1 8.8h-4.4l.7-3 2-2.3 31.4-8.7z"/><path class="st69" d="M218.7 371.5l4.6-3.6h6.2l2.4 7-4.5 3.7-8.5-1.7z"/><path class="st70" d="M284.5 352.5l-55 15 2.4 7.2 74.1-20.9z"/><path class="st71" d="M223.3 367.5l4.1 11m-2.5-6.9l4.6-1.7"/><path class="st53" d="M364.4 273.9h8v5h-8z"/><path class="st64" d="M110.6 252.8h6.8v2.7h-6.8z"/><path class="st52" d="M357.9 278.5l-12.3 18.8c-.6.9.1 2 1.1 2h10.8c.7 0 1.3-.6 1.3-1.3l.2-19.1c0-.7-.8-1-1.1-.4z"/><path class="st54" d="M360.4 277.9h12v27h-12z"/><path class="st55" d="M373.8 291l65.1 120.9-8.6 4.6-64.7-121.6z"/><path class="st56" d="M439.4 418.8v-6.9l-8.5 4.6z"/><path class="st57" d="M445.3 421.9l-6.4-5.4-6.5-1.2-4.9 6.6z"/><path class="st58" d="M414.4 421.9h45v7h-45z"/><path class="st59" d="M450.7 431.9l2.7-3h-34.5l3.1 3z"/><path class="st60" d="M434.6 444h3.8c6.8 0 12.3-5.5 12.3-12.3h-28.3c-.1 6.8 5.4 12.3 12.2 12.3z"/><path class="st62" d="M395.9 266l-23.5 11.4v4.8l24.5-12.8 27.2-4 18.5-8.5h28.8v-4.1l-29.3-.1-20.4 9.7z"/><ellipse class="st63" cx="474.7" cy="255.5" rx="26.6" ry="15.3"/><path transform="rotate(-180 473.085 264.402)" class="st64" d="M471.5 255.5h3.2v17.8h-3.2z"/><path transform="rotate(-180 473.085 249.305)" class="st64" d="M471.5 245.8h3.2v7h-3.2z"/><path transform="rotate(-180 449.35 253.587)" class="st64" d="M448 248.9h2.6v9.3H448z"/><path class="st65" d="M369.4 270.9v-2.4l3-3.4v-3.2h-4"/><path class="st65" d="M369.4 270.9v-2.4l3-3.4v-3.2h-4"/><path class="st65" d="M369.4 270.9v-2.4l3-3.4v-3.2h-4"/><path class="st53" d="M369.4 271.9v-3.4l3-3.4v-3.2h-8v3.2l2 3.4v3.4z"/><path class="st66" d="M422.8 380.4s-3.2-2.8-10.1 2.6l5 9.5s5.8-3.4 9.7-3.4l-4.6-8.7z"/><circle class="st60" cx="400.5" cy="384" r="3.6"/><path class="st67" d="M402.4 386.5l16.5 8.6-6.1-10.1-10.4-2.4z"/><path class="st68" d="M368 377.1l30.1 8.8h4.4l-.7-3-2-2.3-31.4-8.7z"/><path class="st69" d="M368.2 371.5l-4.6-3.6h-6.2l-2.4 7 4.5 3.7 8.5-1.7z"/><path class="st70" d="M302.4 352.5l55 15-2.4 7.2-74.1-20.9z"/><path class="st71" d="M363.6 367.5l-4.1 11m2.5-6.9l-4.6-1.7"/><path transform="rotate(-180 472.858 254.156)" class="st64" d="M469.4 252.8h6.8v2.7h-6.8z"/><path class="st72" d="M237.7 170.1h6.8v88.1h-6.8z"/><path class="st73" d="M241.1 95.4h5.5v74.4h-5.5z"/><ellipse class="st74" cx="282.4" cy="201.4" rx="37.2" ry="33.6"/><ellipse class="st75" cx="282.4" cy="201.4" rx="31.7" ry="28.7"/><ellipse class="st76" cx="282.4" cy="201.4" rx="28.6" ry="25.9"/><path class="st75" d="M259.2 201.4h12.3v2.6h-12.3z"/><path class="st54" d="M331.9 218.9h23.2l-.6 40.8-3.5-1.3z"/><circle class="st47" cx="251.7" cy="169.4" r="4.8"/><circle class="st77" cx="251.7" cy="169.4" r="2.7"/><path class="st78" d="M260.8 160.7l-6.3 4-.6 3.2h2.9l6.8-3.6zm-15.4 11.2l1.5-1h3.1l-1.1 2.4-3.7 3.7z"/><path class="st79" d="M359.9 227.3c-1 0-1.9-.8-1.9-1.9V111.6c0-1 .8-1.9 1.9-1.9 1 0 1.9.8 1.9 1.9v113.8c0 1-.8 1.9-1.9 1.9z"/><path class="st48" d="M347.3 44.3h10.8v55.3h-10.8z"/><path class="st63" d="M354.8 44.3h-4.3c-4.4 0-8-3.6-8-8V23.1c0-4.4 3.6-8 8-8h4.3c4.4 0 8 3.6 8 8v13.1c0 4.5-3.6 8.1-8 8.1z"/><path transform="rotate(-33.108 309.85 150.676)" class="st80" d="M298.2 148.7h23.2v3.9h-23.2z"/><path class="st80" d="M256.4 141.2h34.7v3h-34.7z"/><path transform="rotate(16.178 216.807 142.682)" class="st80" d="M198.9 141.2h35.8v3h-35.8z"/><circle class="st46" cx="345.5" cy="131.5" r="8.8"/><circle class="st46" cx="344.8" cy="164.6" r="8.8"/><circle class="st81" cx="344.8" cy="192.6" r="8.8"/><path class="st71" d="M361.8 146s20.6 1.9 28.6 12.7m-28.6 37.4s10.9 1.4 26.7-10.4m-134.6 78.7l-12.6 32.8 13.1 55.3m91.2-55.3l-9.6-32.1m10.6 34.1L336 352.5"/><path class="st82" d="M265.3 233h2.4v192.6h-2.4zm28.6 0h2.4v192.6h-2.4z"/><path class="st83" d="M267.7 241.5h26.2v2.3h-26.2zm0 10.9h26.2v2.3h-26.2zm0 11h26.2v2.3h-26.2zm0 10.9h26.2v2.3h-26.2zm0 10.9h26.2v2.3h-26.2zm0 11h26.2v2.3h-26.2zm0 10.9h26.2v2.3h-26.2zm0 10.9h26.2v2.3h-26.2zm0 11h26.2v2.3h-26.2zm0 10.9h26.2v2.3h-26.2zm0 10.9h26.2v2.3h-26.2zm0 11h26.2v2.3h-26.2zm0 10.9h26.2v2.3h-26.2zm0 10.9h26.2v2.3h-26.2zm0 11h26.2v2.3h-26.2zm0 10.9h26.2v2.3h-26.2z"/></g></svg>