<?xml version="1.0" encoding="utf-8"?>
<!-- Generator: Adobe Illustrator 19.2.1, SVG Export Plug-In . SVG Version: 6.00 Build 0)  -->
<svg version="1.1" id="Layer_1" xmlns="http://www.w3.org/2000/svg" xmlns:xlink="http://www.w3.org/1999/xlink" x="0px" y="0px"
	 viewBox="0 0 868 886" style="enable-background:new 0 0 868 886;" xml:space="preserve">
<style type="text/css">
	.st0{fill:#FFFFFF;}
	.st1{opacity:0.51;}
	.st2{fill:#20211F;}
	.st3{fill:#FFFFFF;stroke:#20211F;stroke-miterlimit:10;}
	.st4{fill:#E8E2D4;stroke:#20211F;stroke-miterlimit:10;}
	.st5{fill:#838484;stroke:#20211F;stroke-miterlimit:10;}
	.st6{fill:#20211F;stroke:#20211F;stroke-miterlimit:10;}
	.st7{fill:#D4DDDD;stroke:#20211F;stroke-miterlimit:10;}
	.st8{fill:#D069A9;stroke:#20211F;stroke-miterlimit:10;}
	.st9{fill:#838484;}
	.st10{fill:#5D6D83;stroke:#20211F;stroke-miterlimit:10;}
	.st11{fill:#E8E2D4;}
	.st12{fill:#8ABFBE;}
	.st13{fill:none;stroke:#838484;stroke-width:2.0324;stroke-miterlimit:10;}
	.st14{fill:none;stroke:#FFFFFF;stroke-width:4;stroke-miterlimit:10;}
	.st15{fill:none;stroke:#20211F;stroke-width:0.8914;stroke-miterlimit:10;}
	.st16{fill:#20211F;stroke:#20211F;stroke-width:0.8987;stroke-miterlimit:10;}
	.st17{fill:#FFFFFF;stroke:#20211F;stroke-width:0.8914;stroke-miterlimit:10;}
	.st18{fill:#FFFFFF;stroke:#000000;stroke-miterlimit:10;}
	.st19{font-family:'Mistral';}
	.st20{font-size:25px;}
</style>
<g>
	<circle class="st0" cx="531.5" cy="140.5" r="6.5"/>
</g>
<g>
	<circle class="st0" cx="295.5" cy="64.5" r="6.5"/>
</g>
<g>
	<circle class="st0" cx="302.5" cy="230.5" r="6.5"/>
</g>
<g>
	<circle class="st0" cx="551.5" cy="505.5" r="6.5"/>
</g>
<g>
	<circle class="st0" cx="814.5" cy="51.5" r="6.5"/>
</g>
<g>
	<g>
		<ellipse class="st0" cx="447.4" cy="341" rx="3.6" ry="3.3"/>
	</g>
	<g>
		<ellipse class="st0" cx="316.6" cy="302.3" rx="3.6" ry="3.3"/>
	</g>
	<g>
		<ellipse class="st0" cx="320.5" cy="386.7" rx="3.6" ry="3.3"/>
	</g>
	<g>
		<ellipse class="st0" cx="505.1" cy="442.7" rx="3.6" ry="3.3"/>
	</g>
	<g>
		<ellipse class="st0" cx="617.1" cy="367.4" rx="3.6" ry="3.3"/>
	</g>
</g>
<g class="st1">
	<g>
		<ellipse class="st0" cx="492.4" cy="78" rx="3.6" ry="3.3"/>
	</g>
	<g>
		<ellipse class="st0" cx="777.4" cy="58.6" rx="3.6" ry="3.3"/>
	</g>
	<g>
		<ellipse class="st0" cx="361.6" cy="39.3" rx="3.6" ry="3.3"/>
	</g>
	<g>
		<ellipse class="st0" cx="365.5" cy="123.7" rx="3.6" ry="3.3"/>
	</g>
	<g>
		<ellipse class="st0" cx="550.1" cy="179.7" rx="3.6" ry="3.3"/>
	</g>
	<g>
		<ellipse class="st0" cx="662.1" cy="104.4" rx="3.6" ry="3.3"/>
	</g>
</g>
<g>
	<g>
		<ellipse class="st0" cx="383.4" cy="554" rx="3.6" ry="3.3"/>
	</g>
	<g>
		<ellipse class="st0" cx="668.4" cy="534.6" rx="3.6" ry="3.3"/>
	</g>
	<g>
		<ellipse class="st0" cx="252.6" cy="515.3" rx="3.6" ry="3.3"/>
	</g>
	<g>
		<ellipse class="st0" cx="256.5" cy="599.7" rx="3.6" ry="3.3"/>
	</g>
	<g>
		<ellipse class="st0" cx="441.1" cy="655.7" rx="3.6" ry="3.3"/>
	</g>
	<g>
		<ellipse class="st0" cx="553.1" cy="580.4" rx="3.6" ry="3.3"/>
	</g>
</g>
<g>
	<g>
		<ellipse class="st0" cx="690.6" cy="774" rx="3.6" ry="3.3"/>
	</g>
	<g>
		<ellipse class="st0" cx="405.6" cy="754.6" rx="3.6" ry="3.3"/>
	</g>
	<g>
		<ellipse class="st0" cx="821.4" cy="735.3" rx="3.6" ry="3.3"/>
	</g>
	<g>
		<ellipse class="st0" cx="817.5" cy="819.7" rx="3.6" ry="3.3"/>
	</g>
	<g>
		<ellipse class="st0" cx="632.9" cy="875.7" rx="3.6" ry="3.3"/>
	</g>
	<g>
		<ellipse class="st0" cx="520.9" cy="800.4" rx="3.6" ry="3.3"/>
	</g>
</g>
<g>
	<g>
		<ellipse class="st0" cx="94.4" cy="80" rx="3.6" ry="3.3"/>
	</g>
	<g>
		<ellipse class="st0" cx="379.4" cy="60.6" rx="3.6" ry="3.3"/>
	</g>
	<g>
		<ellipse class="st0" cx="152.1" cy="181.7" rx="3.6" ry="3.3"/>
	</g>
	<g>
		<ellipse class="st0" cx="264.1" cy="106.4" rx="3.6" ry="3.3"/>
	</g>
</g>
<g id="astronaut_1_">
	<g id="astronaut">
		<g>
			<path class="st2" d="M412.6,287.9c-19.5-2.7-29.2-26.8-30.8-41.5c-0.4-3.5-0.3-6.5,0.3-8.6c1.4-5.7,4-8.6,7.6-8.6
				c2.1,0,4,1.1,4.5,1.4c8.1,20.5,17.4,30.8,27.6,30.8c0.7,0,1.5-0.1,2.2-0.2c-4.3,5.2-7.7,12.4-10.2,21.8
				C413.3,284.6,412.9,286.3,412.6,287.9z"/>
			<path class="st2" d="M389.6,229.7c1.8,0,3.5,0.9,4.1,1.2c8.2,20.6,17.6,31,28,31c0.4,0,0.7,0,1.1,0c-4,5.2-7.1,12.1-9.5,21
				c-0.4,1.5-0.8,3.1-1.1,4.5c-10.2-1.6-17.1-9.3-21-15.6c-4.7-7.4-8-16.9-8.9-25.4c-0.4-3.4-0.3-6.4,0.2-8.5
				C383.9,232.4,386.3,229.7,389.6,229.7 M389.6,228.7c-2.8,0-6.2,1.8-8,9c-0.5,2.2-0.6,5.3-0.3,8.8c1.6,15.3,11.9,39.6,31.7,42
				c0.4-1.8,0.8-3.6,1.3-5.4c2.4-8.9,5.8-16.9,11-22.7c-1.1,0.3-2.3,0.5-3.6,0.5c-7.8,0-17.6-6.5-27.2-30.7
				C394.5,230.2,392.3,228.7,389.6,228.7L389.6,228.7z M437.2,252.1c0,0-0.2,0.3-0.7,0.9c0.3-0.1,0.6-0.2,0.9-0.3
				C437.4,252.5,437.3,252.3,437.2,252.1L437.2,252.1z"/>
		</g>
		<g>
			<path class="st2" d="M466.5,343.7c1.6,0.2,3.2,0.3,4.7,0.3C469.6,343.9,468.1,343.8,466.5,343.7z M411.9,294.4
				c0.3-2,0.7-4,1.1-5.9l0,0C412.6,290.4,412.2,292.4,411.9,294.4z"/>
			<path class="st2" d="M413,288.5c-0.4,1.9-0.8,3.9-1.1,5.9C412.2,292.4,412.6,290.4,413,288.5L413,288.5L413,288.5z M411.9,294.3
				C411.9,294.4,411.9,294.4,411.9,294.3C411.9,294.4,411.9,294.4,411.9,294.3L411.9,294.3z M466.5,343.7c1.5,0.2,3,0.3,4.3,0.3
				c0.1,0,0.2,0,0.4,0C469.6,343.9,468.1,343.8,466.5,343.7L466.5,343.7z"/>
		</g>
		<g>
			<path class="st2" d="M487.7,344.5c-1,0-2.1,0-3.2-0.1c-3.8-0.3-7.8-0.5-12-0.8c-22.6-1.3-48.2-2.8-58.3-14.4
				c-3.3-3.8-4.7-8.3-4.3-13.9c2.3-29.5,8.4-63.3,35.7-63.3c0.9,0,1.8,0,2.7,0.1c22,1.7,44,4.7,55.3,14.9c-4.9,2.7-8.5,9.5-9.1,17.2
				c-0.4,5.2,0.6,10.1,2.7,14c2.2,3.9,5.3,6.2,8.8,6.5c0.2,0,0.5,0,0.7,0c1.3,0,2.7-0.3,4-0.9C510.1,324.8,509.3,344.5,487.7,344.5z
				"/>
			<path class="st2" d="M445.7,252.5c0.9,0,1.8,0,2.7,0.1c21.6,1.7,43.1,4.6,54.5,14.3c-4.8,3-8.2,9.6-8.8,17.3
				c-0.4,5.3,0.6,10.3,2.7,14.2c2.2,4.1,5.5,6.5,9.2,6.7c0.2,0,0.5,0,0.7,0c1.2,0,2.3-0.2,3.4-0.6c-0.3,9.9-0.7,20.1-3.5,27.3
				c-3.2,8.2-9.3,12.1-19,12.1c-1,0-2.1,0-3.1-0.1c-3.8-0.3-7.8-0.5-12-0.8c-22.5-1.3-48-2.8-57.9-14.2c-3.2-3.7-4.6-8.1-4.1-13.5
				c1-12.9,2.8-29.2,8.1-41.9C424.4,259.4,433.3,252.5,445.7,252.5 M445.7,251.5c-28.7,0-34.1,36.2-36.2,63.8
				c-2.2,28.4,43.8,27.2,75,29.6c1.1,0.1,2.2,0.1,3.2,0.1c22.3,0,23-19.9,23.6-42c-1.4,0.8-2.9,1.2-4.5,1.2c-0.2,0-0.4,0-0.6,0
				c-6.9-0.5-11.8-9.4-11-19.9c0.6-8.1,4.5-14.8,9.5-17.1c-11.5-11-34.6-13.9-56.1-15.5C447.5,251.5,446.6,251.5,445.7,251.5
				L445.7,251.5z"/>
		</g>
		<path class="st3" d="M521.6,417.5l0.3,0c3.3,0.5,5.7,3.5,5.6,6.9c-0.1,3.3,0.5,7.3,3.1,10c2.9,3,8.1,2.8,11.5-0.7
			c2.6-2.6,4.1-7.2,2.9-13.6c-0.1-0.5-0.1-1.1-0.1-1.6l0.4-7.1c0.2-3.2-2-6.1-5.1-6.8l-13.5-3.3c-3.8-0.9-7.6,1.6-8.2,5.5
			C517.9,411.4,517.9,416.9,521.6,417.5z"/>
		<path class="st3" d="M385.6,214.5c0,0-6.9-8.4-12.6-6.8c-5,1.4-13,18.6-4,25.8c1.3,1,2.9,1.8,5,2.4c0,0,1.6-0.9,2.5-12.8
			c0,0,5.9-7.6-0.3-9.1"/>
		
			<rect x="375.1" y="109.1" transform="matrix(0.8892 0.4574 -0.4574 0.8892 145.6486 -147.3566)" class="st4" width="4" height="236"/>
		<path class="st3" d="M376.3,212c0,0,11.7,16.9-5.6,20.6"/>
		<path class="st3" d="M374.4,235.9c0,0,4.8,3.4,8,3.6s9.6-10.5,9.6-10.5s1.9-15.7-7.7-14.4c-9.7,1.3-6.1,6.6-6.1,6.6l7,2.5"/>
		<path class="st3" d="M456.8,420.8c-0.9-0.9-1.6-1.9-2.1-3.1c-2.5-5.5-1.4-12.9-1.4-12.9l-6.1-0.8c-6.1-0.8-3-18.2-3-18.2l0.8,0.2
			l22.6,5l0.6,13.7C472.6,420.5,461.9,426,456.8,420.8z"/>
		<path class="st3" d="M412.9,332.6c0,0-24.6,61.1,19.9,77.3c8.1,2.9,16.5-3.8,15.1-12.3c-0.2-1.4-0.6-3-1.2-4.7
			c-4.9-14.4,7.7-22.5,7.7-22.5s7.4,21.6,33.4,34.7c26.1,13,36.1,12.8,36.1,12.8s10.4-18.3-7.1-25.6c-17.5-7.4-13-52.2-13-52.2
			L412.9,332.6z"/>
		<path class="st3" d="M433.1,282.1c-1.5,2.1-2.7,3.3-2.7,3.3c-6.5,2.9-12.3,3.8-17.4,3.1c-19.8-2.4-30.1-26.7-31.7-42
			c-0.4-3.5-0.3-6.6,0.3-8.8c3.5-14.1,12.9-7.5,12.9-7.5c11.1,28,22.5,32.3,30.8,30.2c5.5-1.4,9.6-5.6,11.2-7.5
			c0.5-0.5,0.7-0.9,0.7-0.9c0.1,0.2,0.2,0.4,0.2,0.6C442.5,266.1,436.8,276.9,433.1,282.1z"/>
		<path class="st5" d="M410,307c0.6-6.1,1.5-12.5,2.8-18.5c-19.7-2.4-29.9-26.7-31.5-42c0,0,11.8,30.2,32.7,36.6
			c5.3,1.6,11.2,1.7,17.7-0.6c0.4-0.1,0.7-0.3,1.1-0.4C455.8,274.3,428.1,303.9,410,307z"/>
		<path class="st5" d="M487.1,349.9c-29.6-2.3-77.5-2.5-76.1-21.3c1.4-18.8,6-43.7,35.6-41.5c18.7,1.4,38.6,3.6,50.5,9.7
			c1.2,0.6,1.4,2.4,0.2,3.2c-3.2,2.1-5.4,5.6-5.7,9.8c-0.5,6.9,4.3,13,10.9,13.5c0,0,0,0,0,0c0.9,0.1,1.8,0.9,1.7,1.8
			C502.9,339,510.2,351.6,487.1,349.9z"/>
		<path class="st3" d="M484.4,344.8c-4.2-0.3-8.6-0.6-13.2-0.8l0,0c-1.5-0.1-3.1-0.2-4.7-0.3c-28.2-1.8-58.8-5.1-57-28.4
			c0.3-3.5,0.6-7.3,1-11c0.1-0.9,0.2-1.9,0.3-2.8c0.1-0.9,0.2-1.8,0.4-2.7c0.2-1.5,0.4-2.9,0.7-4.4c0.3-2,0.7-3.9,1.1-5.9h0
			c2.3-11,6.1-21.2,12.3-28.1c0.2-0.2,0.4-0.4,0.6-0.6c0.2-0.2,0.3-0.3,0.5-0.5c0.1-0.1,0.1-0.1,0.2-0.2c0.2-0.2,0.3-0.3,0.5-0.5
			c0.4-0.4,0.8-0.8,1.3-1.1c0.2-0.1,0.4-0.3,0.5-0.4c0.1-0.1,0.2-0.1,0.3-0.2c0.2-0.1,0.3-0.3,0.5-0.4c0.2-0.2,0.5-0.3,0.7-0.5
			c0.2-0.2,0.5-0.3,0.7-0.5c0.2-0.1,0.4-0.2,0.5-0.3c0.3-0.2,0.5-0.3,0.8-0.5c0.6-0.3,1.2-0.6,1.8-0.9c0.2-0.1,0.3-0.1,0.5-0.2
			c0.5-0.2,1.1-0.4,1.7-0.6c0.3-0.1,0.6-0.2,0.9-0.3c0,0,0,0,0,0c0.3-0.1,0.7-0.2,1.1-0.3c0.1,0,0.2,0,0.3-0.1
			c0.3-0.1,0.7-0.2,1-0.2c0.1,0,0.2,0,0.3-0.1c0.4-0.1,0.8-0.1,1.1-0.2c0,0,0.1,0,0.1,0c0.3,0,0.7-0.1,1-0.1c0.1,0,0.3,0,0.4,0
			c0.2,0,0.4,0,0.5,0c0.3,0,0.6-0.1,1-0.1c0.4,0,0.9,0,1.4,0c0.9,0,1.9,0,2.9,0.1c21.5,1.6,44.6,4.5,56.1,15.5
			c-4.9,2.3-8.8,9-9.5,17.1c-0.2,3,0,5.8,0.6,8.3c1.5,6.5,5.5,11.2,10.4,11.6c1.8,0.1,3.5-0.3,5.1-1.2
			C510.6,326.1,509.9,346.8,484.4,344.8z"/>
		<path class="st3" d="M499.5,265.6l-69.7-6.4c-3.3-0.3-4.7-4.1-4.4-7.4l0,0c0.3-3.3,4-3.7,7.3-3.5l67.8,5.2
			c3.3,0.3,5.8,3.2,5.5,6.4l0,0C505.7,263.3,502.8,265.8,499.5,265.6z"/>
		<path class="st3" d="M520.2,231c-2.5,32.8-13.4,32.1-52.3,29.2s-57.3-5.5-54.8-38.3c2.5-32.8,19.4-59.2,58.2-56.2
			C510.2,168.6,522.8,198.2,520.2,231z"/>
		<path class="st6" d="M505,215.8c-1.3,16.8,3.4,36.3-18.6,36.7c-21,0.4-65.4-0.6-68.8-17.3c-1.4-7.1,0.2-26.5,3.4-31.8
			c4.2-6.9,21.5-4.4,33.8-3.4C476.9,201.6,506.3,199,505,215.8z"/>
		<g>
			
				<ellipse transform="matrix(7.648896e-002 -0.9971 0.9971 7.648896e-002 254.5146 719.3375)" class="st7" cx="515.6" cy="222.3" rx="11.4" ry="6.7"/>
			
				<ellipse transform="matrix(7.648896e-002 -0.9971 0.9971 7.648896e-002 257.1689 722.684)" class="st3" cx="518.7" cy="222.5" rx="11.4" ry="6.7"/>
			
				<rect x="520.1" y="192.8" transform="matrix(0.9971 7.648896e-002 -7.648896e-002 0.9971 17.1126 -39.2487)" class="st6" width="1.6" height="22"/>
			
				<ellipse transform="matrix(7.648896e-002 -0.9971 0.9971 7.648896e-002 258.3372 722.4387)" class="st6" cx="519.2" cy="221.8" rx="7.1" ry="3.5"/>
			
				<rect x="520.9" y="192.8" transform="matrix(0.9971 7.648896e-002 -7.648896e-002 0.9971 17.1493 -39.305)" class="st3" width="1.6" height="22.8"/>
			
				<ellipse transform="matrix(7.648896e-002 -0.9971 0.9971 7.648896e-002 259.6644 724.1119)" class="st3" cx="520.7" cy="221.9" rx="7.1" ry="3.5"/>
			<path class="st6" d="M521.7,193.6L521.7,193.6c-0.9-0.1-1.5-0.8-1.4-1.7l0.2-3.1c0.1-0.9,0.8-1.5,1.7-1.4l0,0
				c0.9,0.1,1.5,0.8,1.4,1.7l-0.2,3.1C523.3,193,522.6,193.7,521.7,193.6z"/>
			<path class="st3" d="M522.5,193.6L522.5,193.6c-0.9-0.1-1.5-0.8-1.4-1.7l0.2-3.1c0.1-0.9,0.8-1.5,1.7-1.4l0,0
				c0.9,0.1,1.5,0.8,1.4,1.7l-0.2,3.1C524.1,193.1,523.4,193.7,522.5,193.6z"/>
		</g>
		<path class="st5" d="M522.5,332.5c0,6.6-5.4,12-12,12h-2c-6.6,0-12-5.4-12-12v-53c0-6.6,5.4-12,12-12h2c6.6,0,12,5.4,12,12V332.5z
			"/>
		
			<rect x="430.3" y="283.6" transform="matrix(0.9971 7.648896e-002 -7.648896e-002 0.9971 24.2757 -33.714)" class="st5" width="44" height="33"/>
		<g>
			
				<rect x="436.4" y="278.4" transform="matrix(7.647504e-002 -0.9971 0.9971 7.647504e-002 118.8304 725.1794)" class="st0" width="29" height="40"/>
			<path class="st2" d="M432.5,283l38.9,3l-2.1,27.9l-38.9-3L432.5,283 M431.6,281.9l-2.3,29.9l40.9,3.1l2.3-29.9L431.6,281.9
				L431.6,281.9z"/>
		</g>
		
			<ellipse transform="matrix(7.648896e-002 -0.9971 0.9971 7.648896e-002 185.0828 767.1592)" class="st3" cx="506.7" cy="283.7" rx="21" ry="14"/>
		<path class="st3" d="M511.4,301.8c0,0,15.3-9.6,25.9,8.3c5.4,9,12.2,6.9,17.6,2.6c7.2-5.7,8.5-15.5,3.4-22.9
			c-6.8-10-20.9-22.6-48.3-22.9"/>
		<path class="st3" d="M549.2,315c0,0-0.5,11.5,6,13c6.5,1.5,4.5-1.7,4.5-1.7s0.5,8.1,8.3,5.7c0,0,17.7-13.2-7.7-27.4
			C560.3,304.6,554.2,315.8,549.2,315z"/>
		
			<ellipse transform="matrix(7.648896e-002 -0.9971 0.9971 7.648896e-002 183.9769 625.796)" class="st7" cx="429.8" cy="213.6" rx="6" ry="6"/>
		
			<ellipse transform="matrix(7.648896e-002 -0.9971 0.9971 7.648896e-002 181.1502 641.9152)" class="st7" cx="437.1" cy="223.2" rx="3" ry="3"/>
		<path class="st5" d="M485.5,344.9c-4-0.3-8.2-0.5-12.6-0.8c30.3-0.4,24.4-44.1,24.4-44.1l0.4-5c11.3,5.1,3.9,8.8,8.6,9.2
			c1.7,0.1,3.4-0.3,4.9-1.2C510.6,326.1,509.8,346.8,485.5,344.9z"/>
		<path class="st5" d="M502.9,288.3c13.7-5.5,37.1-9.2,48.8,19.3c0.2,0.4,0.2,0.8,0.2,1.3c-0.2,1.4-0.8,4.7-2.5,6.2
			c-2.1,1.8-5.9,4.5-14.2-8c0,0-0.1-0.1-0.1-0.1c-0.8-1-11.5-14.4-23.9-3.8c0,0-6,4.6-11,0.4C494.9,299.2,496.6,290.8,502.9,288.3z"
			/>
		
			<ellipse transform="matrix(7.648896e-002 -0.9971 0.9971 7.648896e-002 116.492 699.2703)" class="st8" cx="435.7" cy="286.7" rx="2.5" ry="2.5"/>
		<g>
			<path class="st9" d="M443.6,289.4c-1.1-0.1-1.9-1-1.8-2.1c0.1-1,1-1.8,2-1.8c0.1,0,0.1,0,0.2,0c1.1,0.1,1.9,1,1.8,2.1
				c-0.1,1-1,1.8-2,1.8C443.7,289.4,443.6,289.4,443.6,289.4z"/>
			<path class="st2" d="M443.7,285.9L443.7,285.9c0,0,0.1,0,0.1,0c0.4,0,0.8,0.2,1,0.5c0.3,0.3,0.4,0.7,0.4,1.1
				c-0.1,0.8-0.7,1.4-1.5,1.4c0,0-0.1,0-0.1,0c-0.4,0-0.8-0.2-1-0.5c-0.3-0.3-0.4-0.7-0.4-1.1C442.3,286.5,442.9,285.9,443.7,285.9
				 M443.7,284.9c-1.3,0-2.4,1-2.5,2.3c-0.1,1.4,0.9,2.6,2.3,2.7c0.1,0,0.1,0,0.2,0c1.3,0,2.4-1,2.5-2.3c0.1-1.4-0.9-2.6-2.3-2.7
				C443.8,284.9,443.8,284.9,443.7,284.9L443.7,284.9z"/>
		</g>
		
			<rect x="432.6" y="293.5" transform="matrix(0.9971 7.648896e-002 -7.648896e-002 0.9971 23.8911 -32.7181)" class="st10" width="13" height="4"/>
		<path class="st5" d="M532.8,436.7c-0.9-0.9-1.6-1.9-2.1-3.1c0.1,0,0.3,0,0.5,0.1c11.3,2,8.5-11.6,7.2-19.7
			c-1.4-8.1-11.7-4.9-11.7-4.9l-0.4-8.1l15.7,4.2c2.8,1.1,3.5,5.4,3.1,8.3l-0.2,6C549.3,435.3,537.9,441.8,532.8,436.7z"/>
		<path class="st5" d="M456.8,420.8c-0.9-0.9-1.6-1.9-2.1-3.1c0.1,0,0.3,0,0.5,0.1c11.3,2,8.5-11.6,7.2-19.7
			c-1.4-8.1-15.9-6.3-15.9-6.3l-1.4-5.7l22.6,5l0.6,13.7C472.6,420.5,461.9,426,456.8,420.8z"/>
		<path class="st5" d="M446.3,404.4c0,0-24.8-40.5,8.8-43c5.5-0.4,12.2-0.1,15.8,4.7c2.8,3.7,4.7,8.7,7,12.8
			c2.7,4.8,5.6,9.6,8.6,14.3c1.8,2.9,3.7,5.7,6.2,8.1c2.7,2.5,6.1,4.2,9.5,5.6c7.2,2.9,15.6,4.4,22.8,1.5c4.4-1.8,0.5,9.8-0.6,10.1
			c0,0-46.6,12-69.2-45.9c0,0-13.5,5.4-8.2,21.7C447,394.2,449.9,403.2,446.3,404.4z"/>
		<g>
			<path class="st12" d="M424.4,130.8c0,0-42.9-13.7-52.6-4.4s-12.7,35.1-12.7,35.1l45.9,7.1L424.4,130.8z"/>
		</g>
		<path class="st12" d="M357.9,137.4c0,0-18.3,15.6-23.1,0.2c0,0,9,13.7,18.3,10.4c0,0-29.4,16.8-31.6,6.6c0,0-0.8,11,25.3,10"/>
	</g>
</g>
<g>
	<path class="st0" d="M375.5,542.1c0,14.3-1.2,28.1-3.5,41.8c-2.3,14-3.6,28.2-8.1,41.4c-4.6,13.3-10.6,26.3-17.2,38.6
		c-6.6,12.4-15.7,23.3-24.2,34.5c-8.5,11.2-16.8,22.6-26.9,32.4c-10,9.7-22.1,17.2-33.6,25.4c-9.9,7.1-19.9,14.2-30.7,20.1
		c-10.7,5.8-21,13.1-32.5,17.6c-11.4,4.4-23.4,7.9-35.4,10.8c-11.8,2.9-24.5,1.7-36.8,3.2c-12,1.5-24.1,6.1-36.5,6.1
		c-12.9,0-25.8-1.5-38.3-3c-12.8-1.6-24.9-6.3-37.1-9.4c-12.5-3.2-25.6-4.3-37.4-9c-11.9-4.8-22-13.4-33.1-19.6
		c-11.2-6.3-22.7-11.9-32.8-19.6c-10.2-7.7-20.1-15.9-29.2-24.8c-9.1-9-17.5-18.7-25.2-28.8c-7.7-10.1-16-21.1-22.2-32.2
		c-1.5-19.7,4.9-19.8,6-39.5c1.2-19.8-0.5-19.9,0.7-39.6c1.2-19.8-0.3-19.8,0.9-39.6c1.2-19.8,0.2-19.8,1.4-39.6
		c1.2-19.8,1.3-19.7,2.5-39.5c1.2-19.8,4.4-19.6,5.6-39.3c1.2-19.8-3.6-20.3,0.2-39.8c7.3-10.2,17.5-18.7,26.2-27.8
		c8.7-9.1,17.8-17.5,27.7-25.4c9.8-7.8,18.7-17,29.6-23.6c11.5-6.9,23.5-13.2,36-18.6c12.3-5.2,25.7-7.6,38.9-11.2
		c12.9-3.5,25.5-9.2,39-11c13.2-1.7,26.9-0.1,40.5-0.1c13.4,0,26.8-0.7,39.7,0.9c13.3,1.7,25.6,7.4,38.2,10.8
		c12.9,3.5,26.1,5.4,38.2,10.5c12.3,5.2,24.3,10.9,35.6,17.6c11.5,6.8,23.1,13.4,33.4,21.6c10.4,8.3,19,18.6,28.1,28.2
		c9.1,9.6,18.7,19,26.3,29.8c7.6,10.8,14.1,22.6,20,34.4c5.9,11.8,10.9,24.2,15,36.8c4,12.5,6,25.7,8,38.9
		C374.6,515.6,375.5,528.7,375.5,542.1z"/>
</g>
<g>
	<path class="st2" d="M114.5,364.2c0,5.3-1.1,11.2-3.3,15.9c-2.1,4.6-6.9,8.1-10.7,11.9c-3.6,3.5-7.5,7.2-12.3,9.7
		c-4.5,2.4-9.7,3.6-14.9,4.8c-4.9,1.2-10.1,1.1-15.5,1.1c-5.4,0-10.2-1.4-15.1-2.6c-5.2-1.2-11.3-0.1-15.7-2.4
		c-4.8-2.5-9.2-6-12.8-9.6c-3.8-3.8-7.9-8.1-10-12.8c-2.1-4.7,0.7-10.7,0.7-16c0-5.3-0.3-10.1,1.8-14.9c2.1-4.6,6-7.7,9.8-11.5
		c3.6-3.5,5.8-9.1,10.6-11.7c4.5-2.4,10.2-1.8,15.5-3.1c4.9-1.2,9.8-3.5,15.2-3.5c5.4,0,10.7,0.4,15.6,1.5
		c5.2,1.2,10.4,2.8,14.9,5.2c4.8,2.5,7.3,7.7,10.9,11.3c3.8,3.8,9.7,6,11.8,10.7C113.2,353,114.5,358.8,114.5,364.2z"/>
	<path class="st15" d="M114.5,364.2c0,5.3-1.1,11.2-3.3,15.9c-2.1,4.6-6.9,8.1-10.7,11.9c-3.6,3.5-7.5,7.2-12.3,9.7
		c-4.5,2.4-9.7,3.6-14.9,4.8c-4.9,1.2-10.1,1.1-15.5,1.1c-5.4,0-10.2-1.4-15.1-2.6c-5.2-1.2-11.3-0.1-15.7-2.4
		c-4.8-2.5-9.2-6-12.8-9.6c-3.8-3.8-7.9-8.1-10-12.8c-2.1-4.7,0.7-10.7,0.7-16c0-5.3-0.3-10.1,1.8-14.9c2.1-4.6,6-7.7,9.8-11.5
		c3.6-3.5,5.8-9.1,10.6-11.7c4.5-2.4,10.2-1.8,15.5-3.1c4.9-1.2,9.8-3.5,15.2-3.5c5.4,0,10.7,0.4,15.6,1.5
		c5.2,1.2,10.4,2.8,14.9,5.2c4.8,2.5,7.3,7.7,10.9,11.3c3.8,3.8,9.7,6,11.8,10.7C113.2,353,114.5,358.8,114.5,364.2z"/>
</g>
<g>
	<path class="st2" d="M-41.3,526.2c3.7,3.5,7.4,7.2,12,8.9c4.7,1.8,9.9,1.3,14.9,1.1c4.9-0.2,9.9-0.7,14.5-2.7c4.4-2,9-4.5,12.5-8.2
		c3.6-3.7,6.4-8.2,8.2-12.6c1.9-4.7,3.1-9.9,3-14.8c0-5-3.2-9.4-5.1-14c-1.9-4.5-4.6-8.1-8.3-11.6c-3.7-3.5-7.1-7-11.6-8.7
		c-4.7-1.8-9.6-3.4-14.5-3.2c-4.9,0.2-9.2,3.2-13.8,5.3c-4.4,2-8,4.7-11.5,8.4c-3.6,3.7-8.7,6.4-10.5,10.8
		c-1.9,4.7-2.4,10.2-2.4,15.1c0,5,1.3,10.2,3.2,14.8C-48.8,519-45.1,522.6-41.3,526.2z"/>
	<path class="st15" d="M-41.3,526.2c3.7,3.5,7.4,7.2,12,8.9c4.7,1.8,9.9,1.3,14.9,1.1c4.9-0.2,9.9-0.7,14.5-2.7
		c4.4-2,9-4.5,12.5-8.2c3.6-3.7,6.4-8.2,8.2-12.6c1.9-4.7,3.1-9.9,3-14.8c0-5-3.2-9.4-5.1-14c-1.9-4.5-4.6-8.1-8.3-11.6
		c-3.7-3.5-7.1-7-11.6-8.7c-4.7-1.8-9.6-3.4-14.5-3.2c-4.9,0.2-9.2,3.2-13.8,5.3c-4.4,2-8,4.7-11.5,8.4c-3.6,3.7-8.7,6.4-10.5,10.8
		c-1.9,4.7-2.4,10.2-2.4,15.1c0,5,1.3,10.2,3.2,14.8C-48.8,519-45.1,522.6-41.3,526.2z"/>
</g>
<path class="st16" d="M257.9,760.3l-0.1,0.6C209.4,795.5,149,816,83.6,816c-111,0-207.3-59-255.6-145.6l16.5-278.9
	c22-30.7,50.6-56.9,83.7-76.9C-79.6,362.7-130.9,747,257.9,760.3z"/>
<g>
	<path class="st2" d="M25.3,580.3c-3.1-1-6.2-0.8-9.3-0.5c-3.2,0.3-6.1,1.2-8.8,2.7c-2.7,1.5-4.7,3.7-6.7,6.2
		c-1.9,2.4-4.2,4.6-5.1,7.7c-1,3.1-0.5,6.2-0.3,9.2c0.2,3.2,0.7,6.1,2.1,8.9c1.4,2.8,2.8,5.7,5.3,7.7c2.3,2,5.4,2.6,8.6,3.6
		c3.1,1,6,1.7,9,1.4c3.2-0.3,5.8-1.6,8.6-3.1c2.7-1.5,5.4-2.9,7.4-5.4c1.9-2.4,4.6-4.7,5.6-7.8c1-3.1,0.8-6.6,0.5-9.6
		c-0.2-3.2-1.5-6.2-2.9-9c-1.4-2.8-2.9-5.9-5.3-7.9C31.6,582.4,28.4,581.3,25.3,580.3z"/>
	<path class="st15" d="M25.3,580.3c-3.1-1-6.2-0.8-9.3-0.5c-3.2,0.3-6.1,1.2-8.8,2.7c-2.7,1.5-4.7,3.7-6.7,6.2
		c-1.9,2.4-4.2,4.6-5.1,7.7c-1,3.1-0.5,6.2-0.3,9.2c0.2,3.2,0.7,6.1,2.1,8.9c1.4,2.8,2.8,5.7,5.3,7.7c2.3,2,5.4,2.6,8.6,3.6
		c3.1,1,6,1.7,9,1.4c3.2-0.3,5.8-1.6,8.6-3.1c2.7-1.5,5.4-2.9,7.4-5.4c1.9-2.4,4.6-4.7,5.6-7.8c1-3.1,0.8-6.6,0.5-9.6
		c-0.2-3.2-1.5-6.2-2.9-9c-1.4-2.8-2.9-5.9-5.3-7.9C31.6,582.4,28.4,581.3,25.3,580.3z"/>
</g>
<ellipse class="st17" cx="610.5" cy="126.5" rx="95.5" ry="66.5"/>
<path class="st18" d="M553.7,178.7C552.4,193.4,539,202,539,202s24-2,33-15"/>
<text transform="matrix(1 0 0 1 553 120)"><tspan x="0" y="0" class="st19 st20">IF I ONLY HAD </tspan><tspan x="0" y="30" class="st19 st20">A WEBSITE!!!!</tspan></text>
</svg>
