<svg id="Layer_1" xmlns="http://www.w3.org/2000/svg" viewBox="0 0 296.5 181.5"><style>.st0{fill:none;stroke:#262626;stroke-width:3;stroke-miterlimit:10}.st1{fill:#f0f0f0}.st2{fill:none;stroke-miterlimit:10}.st2,.st3,.st4{stroke:#262626}.st3{stroke-miterlimit:10;fill:#f0f0f0}.st4{fill:#b3dfbe;stroke-width:2}.st4,.st5,.st6{stroke-miterlimit:10}.st5{stroke-width:.7492;fill:#b3dfbe;stroke:#262626}.st6{fill:#1a1a1a;stroke:#1a1a1a}.st10,.st11{stroke-miterlimit:10}.st7,.st8{stroke:#262626}.st7,.st8,.st9{stroke-miterlimit:10}.st7{stroke-width:.7492;fill:none}.st8{fill:#b3dfbe}.st9{fill:#fff;stroke:#1a1a1a}.st10,.st11{fill:#bfbfbf;stroke:#262626}.st11{fill:#8abfbe;stroke-width:.7492}</style><path class="st0" d="M143 115l48-27.7c.3-.2.7-.2 1 0l98.7 57c.7.4.7 1.4 0 1.8L242 173.3c-.3.2-.7.2-1 0l-98-56.6c-.7-.3-.7-1.3 0-1.7z"/><path class="st1" d="M228.6 48.8c1.1 16-9.6 23.2-23.8 16-14.2-7.2-26.4-26.1-27.3-41.9-.8-15.9 9.8-23 23.8-16s26.2 25.9 27.3 41.9z"/><path class="st2" d="M228.6 48.8c1.1 16-9.6 23.2-23.8 16-14.2-7.2-26.4-26.1-27.3-41.9-.8-15.9 9.8-23 23.8-16s26.2 25.9 27.3 41.9z"/><path class="st3" d="M184.1 5.7l-55.5 34 37.1 60.5 55.5-33.9"/><path class="st4" d="M15.1 39.2L53.2 18h.1l76.9 42.7v.1L91.5 81.6h-.1L15.1 39.3v-.1z"/><path class="st5" d="M15 38.2L53.2 17l77.1 42.7-38.8 20.9z"/><path class="st1" d="M172.9 82.9c1.1 16-9.6 23.2-23.8 16-14.2-7.2-26.4-26.1-27.3-41.9-.8-15.9 9.8-23 23.8-16 13.9 7.1 26.2 25.9 27.3 41.9z"/><path class="st2" d="M172.9 82.9c1.1 16-9.6 23.2-23.8 16-14.2-7.2-26.4-26.1-27.3-41.9-.8-15.9 9.8-23 23.8-16 13.9 7.1 26.2 25.9 27.3 41.9z"/><path class="st6" d="M150.6 84.4l-26.9 16.5c-4.3 2.6-9.9 1.3-12.5-3l-5.2-8.5c-2.6-4.3-1.3-9.9 3-12.5l26.9-16.5c4.3-2.6 9.9-1.3 12.5 3l5.2 8.5c2.6 4.3 1.3 9.9-3 12.5z"/><path class="st7" d="M36.2 26.5l77.1 42.4"/><path class="st1" d="M139.7 103.2c.7 16-10.1 22.9-24.1 15.4-14-7.5-25.8-26.6-26.3-42.5-.5-15.9 10.3-22.8 24.1-15.4s25.6 26.5 26.3 42.5z"/><path class="st2" d="M139.7 103.2c.7 16-10.1 22.9-24.1 15.4-14-7.5-25.8-26.6-26.3-42.5-.5-15.9 10.3-22.8 24.1-15.4s25.6 26.5 26.3 42.5z"/><path class="st3" d="M96.1 59.2L40 91.9l35.7 61.4 56.2-32.7"/><path class="st1" d="M83.2 136.1c.7 16-10.1 22.9-24.1 15.4S33.3 124.9 32.8 109c-.5-15.9 10.3-22.8 24.1-15.4s25.6 26.5 26.3 42.5z"/><path class="st2" d="M83.2 136.1c.7 16-10.1 22.9-24.1 15.4S33.3 124.9 32.8 109c-.5-15.9 10.3-22.8 24.1-15.4s25.6 26.5 26.3 42.5z"/><path class="st8" d="M141.5 114.9l50-28.9 100.8 58.2-50.8 28.4z"/><path class="st9" d="M59.4 121.7c0 2.4-2 4.4-4.4 4.4s-3.6-2-3.6-4.4c0-2.4 1.2-4.4 3.6-4.4s4.4 2 4.4 4.4z"/><path class="st10" d="M141.2 85.7l24.5 14.6 3.4-1.7L143.7 83c-.8-.5-1.8-.5-2.6 0-1 .5-1 2 .1 2.7z"/><path class="st6" d="M54.7 120l-29.9 15.5 1.3 3 29.4-14.4c1.3-.7 1.8-2.3 1.1-3.6-.5-.6-1.3-.8-1.9-.5z"/><circle class="st11" cx="23.3" cy="138.3" r="4.6"/><path class="st7" d="M160.5 126.1l50.6-28.5m-30.6 39.5l50.6-28.5m-29.6 40.5l50.6-28.5m-27.6 41.5l50.6-28.5m-106.5-33.4l100.6 56.9M29.8 46.4l38.5-21.1m-24 29.4l38.5-21.1M59.4 62.7l38.5-21.1M74 70.9l38.5-21.1"/></svg>