<?xml version="1.0" encoding="utf-8"?>
<!-- Generator: Adobe Illustrator 19.2.1, SVG Export Plug-In . SVG Version: 6.00 Build 0)  -->
<svg version="1.1" id="Layer_1" xmlns="http://www.w3.org/2000/svg" xmlns:xlink="http://www.w3.org/1999/xlink" x="0px" y="0px"
	 viewBox="0 0 996 923.9" style="enable-background:new 0 0 996 923.9;" xml:space="preserve">
<style type="text/css">
	.st0{fill:#FFFFFF;}
	.st1{fill:#DBD1ED;}
	.st2{fill:#222228;}
	.st3{fill:#D9D9DF;}
	.st4{fill:#787452;}
	.st5{fill:#3CF279;}
	.st6{fill:#5D6D83;}
	.st7{fill:#404040;}
	.st8{fill:#3B3B3E;}
	.st9{fill:none;stroke:#222228;stroke-width:1.8037;stroke-miterlimit:10;}
	.st10{fill:none;stroke:#222228;stroke-width:7.2148;stroke-miterlimit:10;}
	.st11{fill:none;stroke:#222228;stroke-width:0.9018;stroke-miterlimit:10;}
	.st12{fill:#A7DBD7;}
	.st13{fill:#8ABFBE;}
	.st14{fill:#99D1CF;}
	.st15{fill:none;stroke:#FFFFFF;stroke-miterlimit:10;}
</style>
<rect x="429" y="271" class="st0" width="135" height="398"/>
<rect x="384" y="571" class="st0" width="239" height="89"/>
<rect x="270" y="568" class="st0" width="449" height="65"/>
<g>
	<g id="XMLID_1_">
		<g>
			<path class="st1" d="M739.1,621.4v17.1l-161.6,27.8c-0.2-2-1.7-14.9-4.1-30.3c-0.9-5.8-1.9-12-3-18c81.6-0.6,151.1-1.4,165.2-1.6
				L739.1,621.4z"/>
			<path class="st2" d="M724.6,601.7l-2.7-3.7l-5.4-29.8l-126.3-119c0,0-15.8-53.3-14.4-63.1c0.4-2.5,5.6-5.5,7.9-6.7
				c-2,25.2,21.7,61.2,21.7,61.2l121.7,122.7l10.8,53.2c0,0-0.9,0-2.6,0L724.6,601.7z"/>
			<path class="st1" d="M724.6,601.7l10.8,14.8c-14.1,0.2-83.5,0.9-165.2,1.6c-1-5.7-2.2-11.2-3.4-16.4H724.6z"/>
			<path class="st0" d="M721.9,598l2.7,3.7H566.9c-2.7-11.5-5.9-20.9-9.2-24L558,368c16.1,1,26.6,4,25.9,10.4c0,0.3-0.1,0.7-0.1,1
				c-2.3,1.2-7.6,4.2-7.9,6.7c-1.4,9.9,14.4,63.1,14.4,63.1l126.3,119L721.9,598z"/>
			<path class="st0" d="M583.9,378.4c0.7-6.3-9.8-9.4-25.9-10.4l0.2-137.5l0.2,0c14.8,77,26.5,148.3,26.5,148.3s-0.4,0.2-1.1,0.6
				C583.8,379,583.8,378.7,583.9,378.4z"/>
			<path class="st3" d="M577.5,666.7l-4.9,5.7h-0.6v-5.1l5.5-0.9C577.4,666.6,577.5,666.7,577.5,666.7z"/>
			<path class="st3" d="M577.4,666.4l-5.5,0.9v-31l1.4-0.2C575.7,651.5,577.2,664.3,577.4,666.4z"/>
			<path class="st2" d="M571.9,707.3c0,0,7.1,21.3,2.4,23.7h-45c-2.5,0-4.5-2-4.5-4.5c0-0.1,0-0.3,0-0.4c0.4-5,1.5-12.8,4.5-18.8
				v-0.7h7.7c0.9-0.5,0.8-2.6,0.4-4.8l0.9-0.2c0.2,0.8,0.8,1.4,1.7,1.4h17.1c1.8-0.9-0.9-9-0.9-9v-21.6h15.6V707.3z"/>
			<path class="st3" d="M573.4,636.1l-1.4,0.2h-28.3v-18.1c9-0.1,17.9-0.1,26.6-0.2C571.4,624.1,572.5,630.3,573.4,636.1z"/>
			<polygon class="st3" points="571.9,667.3 571.9,672.4 556.3,672.4 556.3,667.4 571.3,667.4 			"/>
			<polygon class="st3" points="571.9,636.3 571.9,667.3 571.3,667.4 556.3,667.4 556.3,667 543.7,667 543.7,636.3 			"/>
			<path class="st3" d="M554.1,601.7h12.8c1.2,5.1,2.4,10.7,3.4,16.4c-8.7,0.1-17.6,0.1-26.6,0.2v-16.5H554.1z"/>
			<path class="st3" d="M557.7,577.7c3.3,3.1,6.5,12.4,9.2,24h-12.8l0-25.6c0.8,0.2,1.5,0.4,2.2,0.7
				C556.8,577,557.2,577.3,557.7,577.7z"/>
			<path class="st2" d="M558.3,230.5l-0.2,0L558,368c-1.2-0.1-2.4-0.1-3.7-0.2l0.1-68.8l0.1-87.5l0.2,0
				C555.9,217.9,557.1,224.2,558.3,230.5z"/>
			<path class="st2" d="M558,368l-0.3,209.7c-0.5-0.4-0.9-0.7-1.4-0.9c-0.7-0.3-1.4-0.5-2.2-0.7l0-5.6l0.1-90.2l0.1-87.5l0-25
				C555.6,367.9,556.8,367.9,558,368z"/>
			<path class="st4" d="M556.3,694c0,0,2.7,8.1,0.9,9h-17.1c-0.8,0-1.5-0.6-1.7-1.4c0-0.1,0-0.2,0-0.3c0,0,0-0.1,0-0.1
				c0.2-1.9,0.6-4.9,1.7-7.2v-21.6h2.5h1.1h12.6V694z"/>
			<rect x="543.7" y="667.4" class="st3" width="12.6" height="5"/>
			<rect x="543.7" y="667" class="st3" width="12.6" height="0.5"/>
			<path class="st0" d="M474.8,150.2c-1.1,0.6-2.2,1.2-3.2,1.8c-1.3,0.9-2.6,1.8-3.8,2.8c-6.2,5.1-9.9,11.9-9.9,19.3v0.5h9.6l0.3,0
				c0.1-5.4,3.9-10.2,9.8-13.5c0.7-0.4,1.5-0.8,2.3-1.2c1.6-0.7,3.4-1.4,5.2-1.9c3.9-1.1,8.2-1.8,12.8-1.8s8.9,0.6,12.8,1.8
				c2.5,0.7,4.8,1.6,6.8,2.7c6.5,3.4,10.6,8.5,10.6,14.2h9.6l0.3-0.7c0-8.8-5.3-16.6-13.6-22c-2.1-1.4-4.4-2.6-6.9-3.6
				c-5.8-2.4-12.5-3.7-19.6-3.7C489.3,144.8,481.3,146.8,474.8,150.2z M554.6,211.2c0,0.1,0,0.2,0.1,0.3l-0.2,0H537l-7.2-4.5h-32
				h-32l-5.4,4.5h-18.9c0-0.1,0-0.2,0.1-0.3c7.1-36.2,15.2-70.4,22.6-98.6h0c0,0,23.8-17.8,67.3,0
				C539,140.8,547.5,174.9,554.6,211.2z"/>
			<polygon class="st0" points="554.5,211.5 554.4,299 497.7,299 497.7,207.9 497.7,207 529.7,207 537,211.5 			"/>
			<path class="st0" d="M554.4,299l-0.1,68.8c-15.8-0.7-36.2,0.4-56.6,2.1V299H554.4z"/>
			<path class="st0" d="M554.3,367.8l0,25h-56.6v-22.9C518.1,368.2,538.5,367.1,554.3,367.8z"/>
			<path class="st0" d="M554.3,392.8l-0.1,87.5h0c-20,3.4-39.5,4.5-56.5,4.4v-91.9H554.3z"/>
			<path class="st0" d="M554.2,480.3l-0.1,90.2l0,5.6c-3-0.8-6.7-1.2-10.4-1.3v0c-0.2,0-0.4,0-0.6,0s-0.4,0-0.6,0v0
				c-4.7,0.1-9.2,0.7-12.6,2c-3.9,1.5-7.5,11.8-10.6,24.9h-21.6v-117C514.7,484.8,534.2,483.7,554.2,480.3L554.2,480.3z"/>
			<path class="st3" d="M554.1,576.1l0,25.6h-10.4v-26.9C547.4,574.9,551.1,575.3,554.1,576.1z"/>
			<rect x="542.5" y="667.4" class="st3" width="1.1" height="5"/>
			<rect x="542.5" y="667" class="st3" width="1.1" height="0.5"/>
			<rect x="542.5" y="636.3" class="st3" width="1.1" height="30.7"/>
			<path class="st3" d="M543.7,618.2v18.1h-1.1v-18.1C542.9,618.3,543.3,618.3,543.7,618.2z"/>
			<path class="st3" d="M543.7,601.7v16.5c-0.4,0-0.8,0-1.1,0v-16.6H543.7z"/>
			<path class="st3" d="M543.7,574.8v26.9h-1.1v-26.9c0.2,0,0.4,0,0.6,0C543.3,574.8,543.5,574.8,543.7,574.8z"/>
			<path class="st5" d="M543.7,574.8L543.7,574.8c-0.2,0-0.4,0-0.6,0C543.3,574.8,543.5,574.8,543.7,574.8z"/>
			<path class="st5" d="M543.1,574.8c-0.2,0-0.4,0-0.6,0v0C542.7,574.8,542.9,574.8,543.1,574.8z"/>
			<rect x="540.1" y="667.4" class="st3" width="2.5" height="5"/>
			<rect x="540.1" y="667" class="st3" width="2.5" height="0.5"/>
			<polygon class="st3" points="542.5,636.3 542.5,667 540.1,667 540.1,667.4 536,667.4 536,664.3 529.3,664.3 529.3,636.3 			"/>
			<path class="st3" d="M542.5,618.3v18.1h-13.2v28h-12.4v3.2h-7.5l-0.7-0.8c0,0,2.7-24.7,7.1-48.2
				C524.8,618.4,533.7,618.3,542.5,618.3z"/>
			<path class="st3" d="M542.5,601.7v16.6c-8.8,0.1-17.8,0.1-26.7,0.2c1.1-5.8,2.2-11.5,3.5-16.7H542.5z"/>
			<path class="st3" d="M542.5,574.8v26.9h-23.2c3.1-13.1,6.7-23.4,10.6-24.9C533.3,575.5,537.8,574.9,542.5,574.8z"/>
			<path class="st2" d="M540.1,672.4V694c-1.1,2.3-1.6,5.3-1.7,7.2c0,0,0,0.1,0,0.1c0,0.1,0,0.2,0,0.3l-0.9,0.2
				c-0.5-2.8-1.5-5.8-1.5-5.8v-23.7H540.1z"/>
			<rect x="536" y="667.4" class="st3" width="4.1" height="5"/>
			<path class="st6" d="M538.1,174.1l-0.3,0.7h-9.6c0-5.7-4.1-10.8-10.6-14.2l6.9-8.5C532.9,157.5,538.1,165.4,538.1,174.1z"/>
			<path class="st4" d="M537.5,701.8c0.4,2.2,0.5,4.3-0.4,4.8h-7.7v-34.3h6.7v23.7C536,696.1,537,699,537.5,701.8z"/>
			<rect x="529.3" y="667.4" class="st3" width="6.7" height="5"/>
			<rect x="529.3" y="664.3" class="st3" width="6.7" height="3.2"/>
			<path class="st0" d="M523.6,85.2c2.4,8.3,5,17.5,7.7,27.4c-43.5-17.8-67.3,0-67.3,0h0c3-11.4,5.9-21.9,8.6-31.1c0,0,0,0,0,0
				c0.3,0.2,7.4,3.9,4.7,7.4c0,0,19.8-7.2,40.6,0C518,88.9,515.6,83.3,523.6,85.2z M510.6,96.1c0-2-1.6-3.6-3.6-3.6h-18
				c-1,0-1.9,0.4-2.6,1.1c-0.6,0.6-1.1,1.6-1.1,2.5c0,2,1.6,3.6,3.6,3.6h18c1,0,1.9-0.4,2.6-1.1C510.2,98,510.6,97.1,510.6,96.1z"/>
			<path class="st4" d="M529.3,672.4v34.3h-12.4c-1.1,0-2-0.9-2-2c0-0.1,0-0.1,0-0.2c0.2-2.2,0.7-5.7,2-8.4v-23.7H529.3z"/>
			<rect x="516.9" y="667.4" class="st3" width="12.4" height="5"/>
			<rect x="516.9" y="664.3" class="st3" width="12.4" height="3.2"/>
			<path class="st5" d="M524.5,152.1l-6.9,8.5c-2-1.1-4.3-2-6.8-2.7l6.8-9.4v0C520.1,149.6,522.4,150.8,524.5,152.1z"/>
			<path class="st0" d="M523.6,85.2c-8-1.9-5.6,3.7-5.6,3.7c-20.7-7.2-40.6,0-40.6,0c2.6-3.5-4.4-7.2-4.7-7.4
				c4.3-14.8,8.2-26.4,11-33.8h0h27.1l1.1-0.4C514.6,55.4,518.7,68.5,523.6,85.2z M510.8,76.7c0-2.7-1.2-5-2.7-5s-2.7,2.2-2.7,5
				s1.2,5,2.7,5S510.8,79.5,510.8,76.7z M489.2,76.7c0-2.7-1.2-5-2.7-5s-2.7,2.2-2.7,5s1.2,5,2.7,5S489.2,79.5,489.2,76.7z"/>
			<path class="st1" d="M497.7,601.7h21.6c-1.2,5.3-2.4,11-3.5,16.7c-11.3,0.1-22.7,0.1-33.9,0.2c-1.1-5.8-2.3-11.6-3.5-16.9H497.7z
				"/>
			<path class="st6" d="M517.6,148.5L517.6,148.5l-6.8,9.4c-3.9-1.1-8.2-1.8-12.8-1.8s-8.9,0.6-12.8,1.8l-10.4-7.7
				c6.6-3.4,14.6-5.4,23.2-5.4C505.1,144.8,511.8,146.2,517.6,148.5z"/>
			<polygon class="st3" points="516.9,667.4 516.9,672.4 513.7,672.4 509.4,667.4 			"/>
			<path class="st1" d="M515.8,618.4c-4.3,23.5-7.1,48.2-7.1,48.2l0.7,0.8h-11.1h-0.5h-9.5l0.7-0.8c0,0-2.7-24.6-7-48
				C493.2,618.6,504.5,618.5,515.8,618.4z"/>
			<path class="st7" d="M511.9,47.4l-1.1,0.4h-27.1c0.4-1.1,0.9-2.2,1.3-3.1c0,0,13.5-37.1,26,0C511.3,45.5,511.6,46.4,511.9,47.4z"
				/>
			<ellipse class="st5" cx="508.1" cy="76.7" rx="2.7" ry="5"/>
			<path class="st8" d="M507,92.5c2,0,3.6,1.6,3.6,3.6c0,1-0.4,1.9-1.1,2.5c-0.7,0.7-1.6,1.1-2.6,1.1h-18c-2,0-3.6-1.6-3.6-3.6
				c0-1,0.4-1.9,1.1-2.5c0.7-0.7,1.6-1.1,2.6-1.1H507z"/>
			<path class="st0" d="M497.7,484.7v117h-19.4c-3.1-13.1-6.7-23.4-10.6-24.9c-3.4-1.3-7.9-1.9-12.6-2v0c-0.2,0-0.4,0-0.6,0
				s-0.4,0-0.6,0v0c-4.7,0.1-9.1,0.7-12.5,1.9l0.3-0.4l-0.1-96C444.6,480.9,467.2,484.6,497.7,484.7z"/>
			<path class="st0" d="M497.7,392.8v91.9c-30.6-0.1-53.1-3.8-56-4.4l-0.1-87.5H497.7z"/>
			<path class="st0" d="M497.7,369.9v22.9h-56.2l0-16.8C457.3,374,477.5,371.6,497.7,369.9z"/>
			<path class="st0" d="M497.7,299v70.9c-20.2,1.7-40.4,4.1-56.2,6.1l-0.1-77H497.7z"/>
			<polygon class="st0" points="497.7,207.9 497.7,299 441.4,299 441.4,237.7 441.4,211.5 460.3,211.5 465.7,207 497.7,207 			"/>
			<path class="st3" d="M488.9,666.7l-0.7,0.8h-7.5v-3.2h-12.4v-28h-13.2v-17.5c8.8,0,17.8-0.1,26.7-0.1
				C486.2,642.1,488.9,666.7,488.9,666.7z"/>
			<ellipse class="st5" cx="486.5" cy="76.7" rx="2.7" ry="5"/>
			<polygon class="st3" points="488.3,667.4 484,672.4 480.8,672.4 480.8,667.4 			"/>
			<path class="st5" d="M474.8,150.2l10.4,7.7c-1.8,0.5-3.6,1.2-5.2,1.9c-0.8,0.4-1.6,0.8-2.3,1.2l-9.8-6.2l0,0
				c1.2-1,2.4-1.9,3.8-2.8C472.6,151.4,473.6,150.8,474.8,150.2z"/>
			<path class="st4" d="M482.8,704.5c0,0.1,0,0.1,0,0.2c0,1.1-0.9,2-2,2h-12.4v-34.3h12.4v23.7C482.1,698.7,482.6,702.2,482.8,704.5
				z"/>
			<rect x="468.3" y="667.4" class="st3" width="12.4" height="5"/>
			<rect x="468.3" y="664.3" class="st3" width="12.4" height="3.2"/>
			<path class="st3" d="M478.4,601.7c1.3,5.3,2.4,11.1,3.5,16.9c-9,0.1-17.9,0.1-26.7,0.1v-17.1H478.4z"/>
			<path class="st3" d="M478.4,601.7h-23.2v-26.9c4.7,0.1,9.2,0.7,12.6,2C471.6,578.3,475.2,588.6,478.4,601.7z"/>
			<path class="st6" d="M467.8,154.8l9.8,6.2c-5.9,3.3-9.7,8.2-9.8,13.5l-0.3,0h-9.6v-0.5C457.9,166.7,461.6,160,467.8,154.8
				L467.8,154.8z"/>
			<path class="st2" d="M472.8,726.1c0,0.1,0,0.3,0,0.4c0,2.5-2,4.5-4.5,4.5h-45c-4.7-2.4,2.4-23.7,2.4-23.7v-34.9h15.6V694
				c0,0-2.7,8.1-0.9,9h17.1c0.8,0,1.5-0.6,1.7-1.4l0.9,0.2c-0.4,2.2-0.5,4.3,0.4,4.8h7.7v0.7C471.3,713.3,472.4,721.1,472.8,726.1z"
				/>
			<path class="st4" d="M468.3,672.4v34.3h-7.7c-0.9-0.5-0.8-2.6-0.4-4.8c0.5-2.8,1.5-5.8,1.5-5.8v-23.7H468.3z"/>
			<rect x="461.7" y="667.4" class="st3" width="6.7" height="5"/>
			<rect x="461.7" y="664.3" class="st3" width="6.7" height="3.2"/>
			<polygon class="st3" points="468.3,636.3 468.3,664.3 461.7,664.3 461.7,667.4 457.6,667.4 457.6,667 455.1,667 455.1,636.3 			
				"/>
			<path class="st2" d="M461.7,672.4v23.7c0,0-1,3-1.5,5.8l-0.9-0.2c0-0.1,0-0.2,0-0.3c0-0.1,0-0.1,0-0.1c-0.2-1.9-0.6-4.9-1.7-7.2
				v-21.6H461.7z"/>
			<rect x="457.6" y="667.4" class="st3" width="4.1" height="5"/>
			<path class="st4" d="M459.3,701.2c0,0,0,0.1,0,0.1c0,0.1,0,0.2,0,0.3c-0.2,0.8-0.8,1.4-1.7,1.4h-17.1c-1.8-0.9,0.9-9,0.9-9v-21.6
				H454h1.1h2.5V694C458.7,696.3,459.2,699.3,459.3,701.2z"/>
			<rect x="455.1" y="667.4" class="st3" width="2.5" height="5"/>
			<rect x="455.1" y="667" class="st3" width="2.5" height="0.5"/>
			<rect x="454" y="667.4" class="st3" width="1.1" height="5"/>
			<rect x="454" y="667" class="st3" width="1.1" height="0.5"/>
			<rect x="454" y="636.3" class="st3" width="1.1" height="30.7"/>
			<path class="st3" d="M455.1,618.8v17.5H454v-17.5C454.4,618.8,454.8,618.8,455.1,618.8z"/>
			<path class="st3" d="M455.1,601.7v17.1c-0.4,0-0.8,0-1.1,0v-17.1H455.1z"/>
			<path class="st3" d="M455.1,574.8v26.9H454v-26.9c0.2,0,0.4,0,0.6,0C454.8,574.8,454.9,574.8,455.1,574.8z"/>
			<path class="st5" d="M455.1,574.8L455.1,574.8c-0.2,0-0.4,0-0.6,0C454.8,574.8,454.9,574.8,455.1,574.8z"/>
			<path class="st5" d="M454.6,574.8c-0.2,0-0.4,0-0.6,0v0C454.2,574.8,454.4,574.8,454.6,574.8z"/>
			<rect x="441.4" y="667.4" class="st3" width="12.6" height="5"/>
			<rect x="441.4" y="667" class="st3" width="12.6" height="0.5"/>
			<polygon class="st3" points="454,636.3 454,667 441.4,667 441.4,667.4 425.7,667.4 425.7,636.3 			"/>
			<path class="st3" d="M454,618.8v17.5h-28.3l-1.4-0.2c0.9-5.5,1.8-11.4,2.9-17.2C436,618.8,445,618.8,454,618.8z"/>
			<path class="st3" d="M454,601.7v17.1c-9,0-18,0.1-26.8,0.1c1.1-5.9,2.3-11.8,3.6-17.2H454z"/>
			<path class="st3" d="M454,574.8v26.9h-23.2c2.2-9.5,4.8-17.5,7.4-21.8v0.9l3.3-4.1C444.9,575.5,449.3,574.9,454,574.8z"/>
			<path class="st2" d="M441.4,480.3c0,0,0.1,0,0.3,0.1l0.1,96l-0.3,0.4c0,0-0.1,0-0.1,0c-1.1,0.4-2.1,1.5-3.2,3.2l-0.3-203.5
				c1.1-0.2,2.3-0.3,3.4-0.5v16.8V480.3z"/>
			<path class="st5" d="M441.6,392.8l0.1,87.5c-0.2,0-0.3-0.1-0.3-0.1v-87.5H441.6z"/>
			<path class="st5" d="M441.5,376l0,16.8h-0.2V376C441.4,376,441.5,376,441.5,376z"/>
			<path class="st2" d="M441.4,299l0.1,77c-0.1,0-0.1,0-0.2,0L441.4,299L441.4,299z"/>
			<path class="st3" d="M441.5,576.7l-3.3,4.1v-0.9c1-1.7,2.1-2.7,3.2-3.2C441.4,576.8,441.4,576.8,441.5,576.7z"/>
			<polygon class="st2" points="441.4,237.7 441.4,299 441.4,299 			"/>
			<rect x="425.7" y="667.4" class="st3" width="15.6" height="5"/>
			<path class="st2" d="M441.4,299v77c-1.2,0.2-2.3,0.3-3.4,0.5l-0.2-146l3.6,7.3V299z"/>
			<path class="st2" d="M441.4,211.5v26.2l-3.6-7.3l-0.1,0C438.9,224.2,440.1,217.9,441.4,211.5z"/>
			<path class="st0" d="M437.9,376.5l0.3,203.5c-2.7,4.3-5.2,12.3-7.4,21.8H271.4l2.7-3.7l5.4-29.8l126.3-119
				c0,0,15.8-53.3,14.4-63.1c-0.3-2.1-4.3-4.7-6.9-6.1C416.8,379.4,425.8,378.1,437.9,376.5z"/>
			<path class="st0" d="M437.8,230.5l0.2,146c-12.1,1.6-21.1,2.9-24.7,3.5c-1.2-0.7-2.1-1.1-2.1-1.1S422.9,307.5,437.8,230.5
				L437.8,230.5z"/>
			<path class="st1" d="M271.4,601.7h159.4c-1.3,5.4-2.5,11.2-3.6,17.2c-89.5,0.3-164.1-0.1-166.8-2.2L271.4,601.7z"/>
			<path class="st1" d="M427.2,618.9c-1.1,5.8-2,11.7-2.9,17.2c-2.6,16.8-4.1,30.6-4.1,30.6l-163.3-28.1v-17.1l3.5-4.7
				C263.1,618.7,337.7,619.1,427.2,618.9z"/>
			<polygon class="st3" points="425.7,667.4 425.7,672.4 425.1,672.4 420.2,666.7 424.7,667.4 			"/>
			<path class="st3" d="M425.7,636.3v31.1h-1l-4.5-0.8c0,0,1.5-13.8,4.1-30.6L425.7,636.3z"/>
			<path class="st2" d="M271.4,601.7l-11,15c-6.9-5.2,6.9-49.8,6.9-49.8s100.1-106.4,118.1-122.7s26.2-64,26.2-64s0.6-0.1,1.7-0.3
				c2.6,1.4,6.6,4,6.9,6.1c1.4,9.9-14.4,63.1-14.4,63.1l-126.3,119l-5.4,29.8L271.4,601.7z"/>
		</g>
		<g>
			<polyline class="st9" points="554.1,576.1 554.1,570.5 554.2,480.3 554.3,392.8 554.3,367.8 554.4,299 554.5,211.5 537,211.5 
				529.7,207 497.7,207 465.7,207 460.3,211.5 441.4,211.5 441.4,237.7 441.4,299 441.4,376 441.4,392.8 441.4,480.3 441.4,568.7 
							"/>
			<path class="st9" d="M735.5,616.5c1.7,0,2.6,0,2.6,0l-10.8-53.2L605.5,440.6c0,0-23.7-36-21.7-61.2"/>
			<path class="st9" d="M413.3,379.9c-1.1,0.2-1.7,0.3-1.7,0.3s-8.1,47.8-26.2,64S267.3,566.9,267.3,566.9s-13.8,44.6-6.9,49.8"/>
			<line class="st9" x1="509.4" y1="667.4" x2="498.3" y2="667.4"/>
			<path class="st9" d="M483.8,47.7c0.4-1.1,0.9-2.2,1.3-3.1c0,0,13.5-37.1,26,0c0.3,0.8,0.6,1.8,0.9,2.8c2.7,8,6.8,21.1,11.7,37.8
				c2.4,8.3,5,17.5,7.7,27.4c7.7,28.2,16.1,62.3,23.2,98.6c0,0.1,0,0.2,0.1,0.3c1.2,6.3,2.5,12.7,3.7,19
				c14.8,77,26.5,148.3,26.5,148.3s-0.4,0.2-1.1,0.6c-2.3,1.2-7.6,4.2-7.9,6.7c-1.4,9.9,14.4,63.1,14.4,63.1l126.3,119l5.4,29.8
				l2.7,3.7l10.8,14.8l3.6,4.9v17.1l-161.6,27.8"/>
			<path class="st9" d="M472.7,81.5c4.3-14.8,8.2-26.4,11-33.8"/>
			<path class="st9" d="M420.2,666.7l-163.3-28.1v-17.1l3.5-4.7l11-15l2.7-3.7l5.4-29.8l126.3-119c0,0,15.8-53.3,14.4-63.1
				c-0.3-2.1-4.3-4.7-6.9-6.1c-1.2-0.7-2.1-1.1-2.1-1.1s11.8-71.3,26.5-148.4c1.2-6.3,2.4-12.6,3.7-18.9c0-0.1,0-0.2,0.1-0.3
				c7.1-36.2,15.2-70.4,22.6-98.6c3-11.4,5.9-21.9,8.6-31.1"/>
			<line class="st9" x1="497.7" y1="667.4" x2="488.3" y2="667.4"/>
			<line class="st9" x1="497.7" y1="667.4" x2="498.3" y2="667.4"/>
			<path class="st9" d="M425.7,672.4v34.9c0,0-7.1,21.3-2.4,23.7h45c2.5,0,4.5-2,4.5-4.5c0-0.1,0-0.3,0-0.4
				c-0.4-5-1.5-12.8-4.5-18.8v-0.7"/>
			<path class="st9" d="M441.4,672.4V694c0,0-2.7,8.1-0.9,9h17.1c0.8,0,1.5-0.6,1.7-1.4c0-0.1,0-0.2,0-0.3c0-0.1,0-0.1,0-0.1
				c-0.2-1.9-0.6-4.9-1.7-7.2v-21.6"/>
			<path class="st9" d="M461.7,672.4v23.7c0,0-1,3-1.5,5.8c-0.4,2.2-0.5,4.3,0.4,4.8h7.7h12.4c1.1,0,2-0.9,2-2c0-0.1,0-0.1,0-0.2
				c-0.2-2.2-0.7-5.7-2-8.4v-23.7"/>
			<polyline class="st10" points="566.9,601.7 724.6,601.7 724.7,601.7 			"/>
			<polyline class="st10" points="478.4,601.7 497.7,601.7 519.3,601.7 			"/>
			<polyline class="st10" points="271.4,601.7 271.4,601.7 430.8,601.7 			"/>
			<path class="st9" d="M454.6,574.8c0.2,0,0.4,0,0.6,0"/>
			<path class="st9" d="M454,672.4h-12.6h-15.6h-0.6l-4.9-5.7c0,0,1.5-13.8,4.1-30.6c0.9-5.5,1.8-11.4,2.9-17.2
				c1.1-5.9,2.3-11.8,3.6-17.2c2.2-9.5,4.8-17.5,7.4-21.8c1-1.7,2.1-2.7,3.2-3.2c0,0,0.1,0,0.1,0c3.4-1.3,7.8-1.8,12.5-1.9"/>
			<polyline class="st11" points="497.7,207.9 497.7,299 497.7,369.9 497.7,392.8 497.7,484.7 497.7,601.7 			"/>
			<polyline class="st11" points="441.4,299 441.4,299 497.7,299 554.4,299 			"/>
			<polyline class="st11" points="441.4,392.8 441.6,392.8 497.7,392.8 554.3,392.8 			"/>
			<path class="st11" d="M441.4,480.3c0,0,0.1,0,0.3,0.1c2.9,0.5,25.5,4.3,56,4.4c17,0.1,36.5-1,56.5-4.4"/>
			<path class="st9" d="M538.1,174.1c0-8.8-5.3-16.6-13.6-22c-2.1-1.4-4.4-2.6-6.9-3.6c-5.8-2.4-12.5-3.7-19.6-3.7
				c-8.7,0-16.7,2-23.2,5.4c-1.1,0.6-2.2,1.2-3.2,1.8c-1.3,0.9-2.6,1.8-3.8,2.8c-6.2,5.1-9.9,11.9-9.9,19.3"/>
			<path class="st9" d="M467.8,174.8c0-0.1,0-0.2,0-0.3c0.1-5.4,3.9-10.2,9.8-13.5c0.7-0.4,1.5-0.8,2.3-1.2c1.6-0.7,3.4-1.4,5.2-1.9
				c3.9-1.1,8.2-1.8,12.8-1.8s8.9,0.6,12.8,1.8c2.5,0.7,4.8,1.6,6.8,2.7c6.5,3.4,10.6,8.5,10.6,14.2h9.6"/>
			<polyline class="st9" points="457.6,174.6 457.9,174.6 467.5,174.6 			"/>
			<line class="st9" x1="467.8" y1="154.8" x2="477.6" y2="161.1"/>
			<polyline class="st9" points="474.7,150.2 474.8,150.2 485.2,157.9 			"/>
			<line class="st9" x1="510.8" y1="157.9" x2="517.6" y2="148.6"/>
			<line class="st9" x1="517.6" y1="160.7" x2="524.5" y2="152.1"/>
			<path class="st9" d="M464.1,112.6c0,0,23.8-17.8,67.3,0h0"/>
			<path class="st9" d="M472.7,81.5C472.7,81.5,472.7,81.5,472.7,81.5c0.3,0.2,7.4,3.9,4.7,7.4c0,0,19.8-7.2,40.6,0
				c0,0-2.4-5.6,5.6-3.7"/>
			<path class="st9" d="M507,99.7h-18c-2,0-3.6-1.6-3.6-3.6c0-1,0.4-1.9,1.1-2.5c0.7-0.7,1.6-1.1,2.6-1.1h18c2,0,3.6,1.6,3.6,3.6
				c0,1-0.4,1.9-1.1,2.5C508.9,99.3,508,99.7,507,99.7z"/>
			<ellipse class="st9" cx="486.5" cy="76.7" rx="2.7" ry="5"/>
			<ellipse class="st9" cx="508.1" cy="76.7" rx="2.7" ry="5"/>
			<polyline class="st9" points="483.8,47.7 483.8,47.7 510.8,47.7 			"/>
			<path class="st9" d="M454,672.4h1.1h2.5h4.1h6.7h12.4h3.2l4.3-5l0.7-0.8c0,0-2.7-24.6-7-48c-1.1-5.8-2.3-11.6-3.5-16.9
				c-3.1-13.1-6.7-23.4-10.6-24.9c-3.4-1.3-7.9-1.9-12.6-2c-0.2,0-0.4,0-0.6,0c-0.2,0-0.4,0-0.6,0"/>
			<path class="st9" d="M571.9,672.4v34.9c0,0,7.1,21.3,2.4,23.7h-45c-2.5,0-4.5-2-4.5-4.5c0-0.1,0-0.3,0-0.4
				c0.4-5,1.5-12.8,4.5-18.8v-0.7"/>
			<path class="st9" d="M556.3,672.4V694c0,0,2.7,8.1,0.9,9h-17.1c-0.8,0-1.5-0.6-1.7-1.4c0-0.1,0-0.2,0-0.3c0,0,0-0.1,0-0.1
				c0.2-1.9,0.6-4.9,1.7-7.2v-21.6"/>
			<path class="st9" d="M536,672.4v23.7c0,0,1,3,1.5,5.8c0.4,2.2,0.5,4.3-0.4,4.8h-7.7h-12.4c-1.1,0-2-0.9-2-2c0-0.1,0-0.1,0-0.2
				c0.2-2.2,0.7-5.7,2-8.4v-23.7"/>
			<path class="st9" d="M543.1,574.8c-0.2,0-0.4,0-0.6,0"/>
			<path class="st9" d="M543.7,672.4h12.6h15.6h0.6l4.9-5.7c0,0,0-0.1,0-0.3c-0.2-2-1.7-14.9-4.1-30.3c-0.9-5.8-1.9-12-3-18
				c-1-5.7-2.2-11.2-3.4-16.4c-2.7-11.5-5.9-20.9-9.2-24c-0.5-0.4-0.9-0.7-1.4-0.9c-0.7-0.3-1.4-0.5-2.2-0.7
				c-3-0.8-6.7-1.2-10.4-1.3"/>
			<path class="st9" d="M543.7,672.4h-1.1h-2.5H536h-6.7h-12.4h-3.2l-4.3-5l-0.7-0.8c0,0,2.7-24.7,7.1-48.2
				c1.1-5.8,2.2-11.5,3.5-16.7c3.1-13.1,6.7-23.4,10.6-24.9c3.4-1.3,7.9-1.9,12.6-2c0.2,0,0.4,0,0.6,0c0.2,0,0.4,0,0.6,0"/>
			<polygon class="st9" points="441.7,480.3 441.8,576.3 441.5,576.7 438.2,580.8 438.2,579.9 437.9,376.5 437.8,230.5 441.4,237.7 
				441.4,299 441.5,376 441.6,392.8 			"/>
		</g>
	</g>
</g>
<circle id="smoke5" class="st12" cx="448.5" cy="772.4" r="39">
<animate attributeType="xml" attributeName="r" from="20" to="39" dur=".5s" repeatCount="indefinite" /></circle>
<circle id="smok4" class="st13" cx="426.5" cy="830.9" r="67.5">
<animate attributeType="xml" attributeName="r" from="35" to="67.5" dur=".5s" repeatCount="indefinite" begin='-.2s' /></circle>
<circle id="smoke3" class="st12" cx="549.2" cy="766.2" r="33.2">
<animate attributeType="xml" attributeName="r" from="20" to="33.2" dur=".5s" repeatCount="indefinite" begin='-.4s' /></circle>
<circle id="smoke2" class="st13" cx="574.9" cy="827.9" r="73.5">
<animate attributeType="xml" attributeName="r" from="30" to="73.5" dur=".5s" repeatCount="indefinite" begin='-.5s' /></circle>
<circle id="smoke1" class="st14" cx="500.1" cy="830.3" r="69.9">
<animate attributeType="xml" attributeName="r" from="50" to="69.9" dur=".5s" repeatCount="indefinite" begin='-.2s' /></circle>
<line class="st15" x1="147" y1="115" x2="147" y2="313">
 <animateTransform attributeName="transform"
    type="translate"
    from="0 -200"
    to="0 700"
    begin="0s"
    dur="1s"
    repeatCount="indefinite"
  /></line>
<line class="st15" x1="229" y1="263" x2="229" y2="455">
 <animateTransform attributeName="transform"
    type="translate"
    from="0 -200"
    to="0 700"
    begin="0s"
    dur="1.5s"
    repeatCount="indefinite"
  /></line>
<line class="st15" x1="87" y1="501" x2="87" y2="715">
 <animateTransform attributeName="transform"
    type="translate"
    from="0 -200"
    to="0 700"
    begin="0s"
    dur="1.5s"
    repeatCount="indefinite"
  /></line>
<line class="st15" x1="823" y1="427" x2="823" y2="593">
 <animateTransform attributeName="transform"
    type="translate"
    from="0 -200"
    to="0 700"
    begin="0s"
    dur="1.5s"
    repeatCount="indefinite"
  /></line>
<line class="st15" x1="745" y1="107" x2="745" y2="289">
 <animateTransform attributeName="transform"
    type="translate"
    from="0 -500"
    to="0 700"
    begin="0s"
    dur="1.5s"
    repeatCount="indefinite"
  /></line>
<line class="st15" x1="913" y1="523" x2="913" y2="751">
 <animateTransform attributeName="transform"
    type="translate"
    from="0 -500"
    to="0 700"
    begin="0s"
    dur="1s"
    repeatCount="indefinite"
  /></line>
</svg>
